<?xml version="1.0" encoding="utf-8"?>
<!-- Generator: Adobe Illustrator 17.0.0, SVG Export Plug-In . SVG Version: 6.00 Build 0)  -->
<!DOCTYPE svg PUBLIC "-//W3C//DTD SVG 1.1//EN" "http://www.w3.org/Graphics/SVG/1.1/DTD/svg11.dtd">
<svg version="1.1" id="Layer_1" xmlns="http://www.w3.org/2000/svg" xmlns:xlink="http://www.w3.org/1999/xlink" x="0px" y="0px"
	 width="1025px" height="1024px" viewBox="0 0 1025 1024" enable-background="new 0 0 1025 1024" xml:space="preserve">
<g><path d="M938.667 170.667c46.933 0 85.333 38.4 85.333 85.333v426.667c0 46.933-38.4 85.333-85.333 85.333h-682.667c-46.933 0-85.333-38.4-85.333-85.333l0.427-512c0-46.933 37.973-85.333 84.907-85.333h220.587c22.613 0 44.373 8.96 60.587 25.173l60.16 60.16h341.333zM42.667 256c23.467 0 42.667 19.2 42.667 42.667v512c0 23.467 19.2 42.667 42.667 42.667h682.667c23.467 0 42.667 19.2 42.667 42.667s-19.2 42.667-42.667 42.667h-725.333c-46.933 0-85.333-38.4-85.333-85.333l0.427-384h-0.427v-170.667c0-23.467 19.2-42.667 42.667-42.667zM474.027 406.187l-149.76 199.68c-10.667 14.080-0.427 34.133 17.067 33.707h511.573c17.493 0 27.733-20.48 16.64-34.56l-106.24-136.533c-8.533-10.667-24.747-11.093-33.28-0.427l-89.6 107.947-132.267-170.24c-8.96-11.093-25.6-10.667-34.133 0.427z"></path></g>
</svg>
