<?xml version="1.0" encoding="utf-8"?>
<!-- Generator: Adobe Illustrator 17.0.0, SVG Export Plug-In . SVG Version: 6.00 Build 0)  -->
<!DOCTYPE svg PUBLIC "-//W3C//DTD SVG 1.1//EN" "http://www.w3.org/Graphics/SVG/1.1/DTD/svg11.dtd">
<svg version="1.1" id="Layer_1" xmlns="http://www.w3.org/2000/svg" xmlns:xlink="http://www.w3.org/1999/xlink" x="0px" y="0px"
	 width="1025px" height="1024px" viewBox="0 0 1025 1024" enable-background="new 0 0 1025 1024" xml:space="preserve">
<g><path d="M899.401 298.692c-7.373-12.774-17.927-23.419-30.64-30.896s-27.147-11.533-41.893-11.771h-546.134l-24.747-96.426c-2.5-9.308-8.078-17.496-15.826-23.229s-17.208-8.674-26.841-8.345h-85.334c-11.316 0-22.168 4.495-30.17 12.497s-12.497 18.854-12.497 30.17c0 11.316 4.495 22.169 12.497 30.17s18.854 12.497 30.17 12.497h52.907l117.76 437.759c2.5 9.307 8.079 17.496 15.826 23.23s17.208 8.675 26.841 8.346h384c7.881-0.026 15.598-2.231 22.301-6.374 6.704-4.14 12.127-10.057 15.671-17.093l139.948-279.892c6.067-12.716 8.891-26.734 8.221-40.805-0.673-14.071-4.816-27.757-12.061-39.837z"></path><path d="M320 896.026c35.346 0 64-28.654 64-64s-28.654-64-64-64c-35.346 0-64 28.654-64 64s28.654 64 64 64z"></path><path d="M746.679 896.026c35.346 0 64-28.654 64-64s-28.654-64-64-64c-35.346 0-64 28.654-64 64s28.654 64 64 64z"></path></g>
</svg>
