<?xml version="1.0" encoding="utf-8"?>
<!-- Generator: Adobe Illustrator 17.0.0, SVG Export Plug-In . SVG Version: 6.00 Build 0)  -->
<!DOCTYPE svg PUBLIC "-//W3C//DTD SVG 1.1//EN" "http://www.w3.org/Graphics/SVG/1.1/DTD/svg11.dtd">
<svg version="1.1" id="Layer_1" xmlns="http://www.w3.org/2000/svg" xmlns:xlink="http://www.w3.org/1999/xlink" x="0px" y="0px"
	 width="1025px" height="1024px" viewBox="0 0 1025 1024" enable-background="new 0 0 1025 1024" xml:space="preserve">
<g><path d="M512.013 682.667c-9.971 0.021-19.631-3.452-27.307-9.813l-256-213.333c-18.144-15.083-20.628-42.015-5.547-60.16s42.016-20.628 60.16-5.547l228.693 191.146 228.693-184.32c8.815-7.158 20.117-10.508 31.411-9.306 11.29 1.201 21.636 6.854 28.749 15.706 7.898 8.869 11.746 20.629 10.611 32.452-1.135 11.819-7.142 22.635-16.585 29.841l-256 206.080c-7.898 5.355-17.361 7.91-26.88 7.253z"></path></g>
</svg>
