<?xml version="1.0" encoding="utf-8"?>
<!-- Generator: Adobe Illustrator 17.0.0, SVG Export Plug-In . SVG Version: 6.00 Build 0)  -->
<!DOCTYPE svg PUBLIC "-//W3C//DTD SVG 1.1//EN" "http://www.w3.org/Graphics/SVG/1.1/DTD/svg11.dtd">
<svg version="1.1" id="Layer_1" xmlns="http://www.w3.org/2000/svg" xmlns:xlink="http://www.w3.org/1999/xlink" x="0px" y="0px"
	 width="1025px" height="1024px" viewBox="0 0 1025 1024" enable-background="new 0 0 1025 1024" xml:space="preserve">
<g><path d="M572.179 512l183.468-183.040c16.728-16.731 16.728-43.856 0-60.587s-43.855-16.731-60.588 0l-183.040 183.467-183.039-183.467c-16.73-16.73-43.856-16.731-60.586 0s-16.731 43.856 0 60.587l183.466 183.040-183.466 183.040c-8.077 8.010-12.621 18.916-12.621 30.292 0 11.38 4.543 22.281 12.621 30.296 8.011 8.076 18.917 12.618 30.293 12.618s22.282-4.543 30.293-12.618l183.039-183.468 183.040 183.468c8.015 8.076 18.916 12.618 30.296 12.618 11.376 0 22.281-4.543 30.292-12.618 8.076-8.015 12.618-18.916 12.618-30.296 0-11.376-4.543-22.281-12.618-30.292l-183.468-183.040z"></path></g>
</svg>
