<svg width="1025" height="1024" xmlns="http://www.w3.org/2000/svg" xml:space="preserve" enable-background="new 0 0 1025 1024" version="1.1">

 <g>
  <title>Layer 1</title>
  <g transform="rotate(90 512.481 533.357)" id="svg_1">
   <path id="svg_2" d="m512.013,682.667c-9.971,0.021 -19.631,-3.452 -27.307,-9.813l-256,-213.333c-18.144,-15.083 -20.628,-42.015 -5.547,-60.16s42.016,-20.628 60.16,-5.547l228.693,191.146l228.693,-184.32c8.815,-7.158 20.117,-10.508 31.411,-9.306c11.29,1.201 21.636,6.854 28.749,15.706c7.898,8.869 11.746,20.629 10.611,32.452c-1.135,11.819 -7.142,22.635 -16.585,29.841l-256,206.08c-7.898,5.355 -17.361,7.91 -26.88,7.253l0.002,0.001z"/>
  </g>
 </g>
</svg>