<?xml version="1.0" encoding="utf-8"?>
<!-- Generator: Adobe Illustrator 17.0.0, SVG Export Plug-In . SVG Version: 6.00 Build 0)  -->
<!DOCTYPE svg PUBLIC "-//W3C//DTD SVG 1.1//EN" "http://www.w3.org/Graphics/SVG/1.1/DTD/svg11.dtd">
<svg version="1.1" id="Layer_1" xmlns="http://www.w3.org/2000/svg" xmlns:xlink="http://www.w3.org/1999/xlink" x="0px" y="0px"
	 width="1025px" height="1024px" viewBox="0 0 1025 1024" enable-background="new 0 0 1025 1024" xml:space="preserve">
<g><path d="M709.12 264.96c-8.922-7.063-20.294-10.27-31.59-8.909-11.298 1.363-21.583 7.181-28.57 16.162l-298.667 384-146.346-178.347c-9.347-12.442-24.725-18.807-40.131-16.614-15.406 2.195-28.395 12.604-33.895 27.159-5.5 14.558-2.639 30.955 7.466 42.788l177.92 221.013c8.134 10.027 20.369 15.829 33.28 15.787 13.726 0.612 26.908-5.423 35.413-16.213l334.080-426.667c6.88-9.135 9.807-20.646 8.122-31.957-1.683-11.311-7.838-21.47-17.082-28.203z"></path><path d="M922.447 264.96c-8.922-7.063-20.294-10.27-31.593-8.909-11.296 1.363-21.581 7.181-28.567 16.162l-298.667 384-26.027-32-53.76 69.12 46.933 58.453c8.132 10.027 20.369 15.829 33.28 15.787 12.981-0.060 25.231-6.027 33.28-16.213l334.080-426.667c6.743-9.105 9.589-20.521 7.908-31.725-1.681-11.206-7.75-21.284-16.868-28.009z"></path><path d="M371.618 557.227l55.040-69.12-8.533-10.24c-6.805-9.429-17.167-15.671-28.685-17.284-11.518-1.611-23.196 1.551-32.329 8.751-8.851 7.113-14.505 17.459-15.706 28.751s2.148 22.594 9.306 31.409l20.907 27.733z"></path></g>
</svg>
