<?xml version="1.0" encoding="utf-8"?>
<!-- Generator: Adobe Illustrator 17.0.0, SVG Export Plug-In . SVG Version: 6.00 Build 0)  -->
<!DOCTYPE svg PUBLIC "-//W3C//DTD SVG 1.1//EN" "http://www.w3.org/Graphics/SVG/1.1/DTD/svg11.dtd">
<svg version="1.1" id="Layer_1" xmlns="http://www.w3.org/2000/svg" xmlns:xlink="http://www.w3.org/1999/xlink" x="0px" y="0px"
	 width="1025px" height="1024px" viewBox="0 0 1025 1024" enable-background="new 0 0 1025 1024" xml:space="preserve">
<g><path fill="rgb(33, 43, 54)" d="M576 512c0 35.346-28.654 64-64 64s-64-28.654-64-64c0-35.346 28.654-64 64-64s64 28.654 64 64z"></path><path fill="rgb(0, 0, 0)" d="M933.124 490.667v0zM500.484 213.333l1.079 42.653 0.205-0.006-1.284-42.647zM933.124 533.333l-36.954-21.333-0.064 0.111 37.018 21.222zM523.524 810.667v42.667h0.538l0.542-0.013-1.079-42.654zM90.883 533.333v0zM90.883 490.667l-36.908-21.406-0.043 0.073 36.951 21.333zM970.086 469.355c-14.844-25.741-61.922-101.34-139.593-169.968-77.82-68.762-189.286-132.975-331.294-128.701l2.569 85.295c113.139-3.406 204.335 47.368 272.222 107.353 68.041 60.118 109.705 127.026 122.172 148.646l73.924-42.624zM970.074 554.667c15.245-26.402 15.245-58.931 0-85.333l-73.903 42.667 73.903 42.667zM524.604 853.321c131.008-3.319 233.476-62.66 306.748-127.637 73.067-64.794 119.181-136.93 138.786-171.127l-74.031-42.445c-17.088 29.803-57.796 93.346-121.374 149.726-63.369 56.196-147.349 103.518-252.288 106.176l2.159 85.308zM512.858 853.333h10.667v-85.333h-10.667v85.333zM53.943 554.684c14.501 25.088 59.802 98.726 135.256 166.498 75.596 67.9 184.087 132.151 323.659 132.151v-85.333c-111.738 0-200.793-51.162-266.637-110.302-65.985-59.268-106.018-124.297-118.397-145.715l-73.881 42.701zM53.932 469.333c-15.243 26.402-15.243 58.931 0 85.333l73.901-42.667-73.901-42.667zM499.405 170.68c-131.019 3.317-233.387 62.669-306.604 127.648-73.012 64.798-119.101 136.923-138.826 170.932l73.816 42.812c17.395-29.99 58.132-93.546 121.653-149.921 63.317-56.194 147.189-103.509 252.119-106.165l-2.159-85.306zM512.004 618.667c-58.91 0-106.668-47.757-106.668-106.667h-85.333c0 106.039 85.961 192 192.001 192v-85.333zM618.671 512c0 58.91-47.757 106.667-106.667 106.667v85.333c106.035 0 192-85.961 192-192h-85.333zM512.004 405.333c58.91 0 106.667 47.757 106.667 106.667h85.333c0-106.039-85.965-192-192-192v85.333zM405.336 512c0-58.91 47.758-106.667 106.668-106.667v-85.333c-106.040 0-192.001 85.961-192.001 192h85.333z"></path></g>
</svg>
