<?xml version="1.0" encoding="utf-8"?>
<!-- Generator: Adobe Illustrator 17.0.0, SVG Export Plug-In . SVG Version: 6.00 Build 0)  -->
<!DOCTYPE svg PUBLIC "-//W3C//DTD SVG 1.1//EN" "http://www.w3.org/Graphics/SVG/1.1/DTD/svg11.dtd">
<svg version="1.1" id="Layer_1" xmlns="http://www.w3.org/2000/svg" xmlns:xlink="http://www.w3.org/1999/xlink" x="0px" y="0px"
	 width="1025px" height="1024px" viewBox="0 0 1025 1024" enable-background="new 0 0 1025 1024" xml:space="preserve">
<g><path d="M171.333 872.277h691.284c82.716 0 130.714-47.997 130.714-139.713v-473.572c0-91.714-48.424-139.714-140.999-139.714h-691.284c-82.715 0-130.715 47.571-130.715 139.714v473.572c0 91.716 48.429 139.713 141 139.713zM463.619 510.564l-312-308.572c6-1.286 12.857-2.143 20.143-2.143h680.144c7.714 0 14.569 0.857 20.998 2.572l-311.57 308.143c-18 17.571-33 25.285-48.857 25.285s-30.857-8.143-48.857-25.285zM110.476 264.992l233.143 229.286-233.143 230.572v-459.858zM681.335 494.278l231.856-228v457.713l-231.856-229.713zM171.762 791.279c-7.714 0-15-0.859-21.428-2.145l245.571-243.428 23.143 23.143c31.286 30.429 61.286 43.286 93.429 43.286 31.714 0 62.141-12.857 92.998-43.286l23.575-23.143 245.14 243.001c-6.855 1.712-14.143 2.571-22.283 2.571h-680.144z"></path></g>
</svg>
