<?xml version="1.0" encoding="utf-8"?>
<!-- Generator: Adobe Illustrator 17.0.0, SVG Export Plug-In . SVG Version: 6.00 Build 0)  -->
<!DOCTYPE svg PUBLIC "-//W3C//DTD SVG 1.1//EN" "http://www.w3.org/Graphics/SVG/1.1/DTD/svg11.dtd">
<svg version="1.1" id="Layer_1" xmlns="http://www.w3.org/2000/svg" xmlns:xlink="http://www.w3.org/1999/xlink" x="0px" y="0px"
	 width="1025px" height="1024px" viewBox="0 0 1025 1024" enable-background="new 0 0 1025 1024" xml:space="preserve">
<g><path d="M725.335 149.34c0-11.782-9.554-21.334-21.335-21.334h-106.665c-111.818-5.57-207.137 80.217-213.335 192v115.2h-106.666c-11.782 0-21.334 9.551-21.334 21.334v110.935c0 11.781 9.551 21.33 21.334 21.33h106.666v285.87c0 11.781 9.551 21.33 21.334 21.33h128.002c11.781 0 21.33-9.549 21.33-21.33v-285.87h111.79c9.759 0.143 18.371-6.359 20.905-15.785l30.72-110.934c1.72-6.389 0.379-13.214-3.63-18.476s-10.235-8.367-16.85-8.404h-142.935v-115.2c2.202-21.884 20.675-38.51 42.67-38.4h106.665c11.781 0 21.335-9.551 21.335-21.334v-110.933z"></path></g>
</svg>
