<?xml version="1.0" encoding="utf-8"?>
<!-- Generator: Adobe Illustrator 17.0.0, SVG Export Plug-In . SVG Version: 6.00 Build 0)  -->
<!DOCTYPE svg PUBLIC "-//W3C//DTD SVG 1.1//EN" "http://www.w3.org/Graphics/SVG/1.1/DTD/svg11.dtd">
<svg version="1.1" id="Layer_1" xmlns="http://www.w3.org/2000/svg" xmlns:xlink="http://www.w3.org/1999/xlink" x="0px" y="0px"
	 width="1025px" height="1024px" viewBox="0 0 1025 1024" enable-background="new 0 0 1025 1024" xml:space="preserve">
<g xmlns="http://www.w3.org/2000/svg"><path fill="rgb(0, 0, 0)" d="M514.941 952.064c0 0 0 0 0 0-24.414 0-48.828-9.766-68.359-29.297l-361.328-356.446c-112.305-112.305-112.305-297.852 0-410.157s297.852-112.305 410.157 0l19.531 14.648 14.648-14.648c112.305-112.305 297.852-112.305 410.157 0s112.305 297.852 0 410.157l-361.328 356.446c-14.648 19.531-39.063 29.297-63.477 29.297zM514.941 854.407v0 0zM295.215 170.813c-48.828 0-97.656 19.531-136.719 53.711-73.242 73.242-73.242 195.313 0 268.555l356.446 356.446 361.328-356.446c73.242-73.242 73.242-195.313 0-268.555s-200.195-73.242-273.438 0l-83.008 83.008-87.891-83.008c-39.063-34.18-87.891-53.711-136.719-53.711z"/></g>
</svg>
