<?xml version="1.0" encoding="utf-8"?>
<!-- Generator: Adobe Illustrator 17.0.0, SVG Export Plug-In . SVG Version: 6.00 Build 0)  -->
<!DOCTYPE svg PUBLIC "-//W3C//DTD SVG 1.1//EN" "http://www.w3.org/Graphics/SVG/1.1/DTD/svg11.dtd">
<svg version="1.1" id="Layer_1" xmlns="http://www.w3.org/2000/svg" xmlns:xlink="http://www.w3.org/1999/xlink" x="0px" y="0px"
	 width="1025px" height="1024px" viewBox="0 0 1025 1024" enable-background="new 0 0 1025 1024" xml:space="preserve">
<g><path d="M471.1 1024c0 0 0 0 0 0-5.3 0-10.5-0.9-15.5-2.7l-0.8-0.3c-19.9-7.5-32.2-27.6-29.8-48.7v-0.1l35.8-329.9h-274.2c0 0 0 0 0 0-17.2 0-33-9.5-41.1-24.7s-7.1-33.5 2.4-47.8l367.9-549.9c11.8-16.9 33.5-24 53-17.5l2.2 0.8c17.4 7 28.9 23.6 29.3 42.3v2.6l-36 333.6h274.2c0 0 0 0 0 0 17.2 0 33 9.5 41.1 24.7 8.1 15.1 7.2 33.4-2.4 47.7l-0.2 0.2-368.6 551.1c-8.8 11.7-22.6 18.6-37.3 18.6zM471.1 942.5v0c0.1 0 0 0 0 0v0zM251.9 560.9h299.7l-30.3 278.7 251.7-376.4h-299.5l30-278.4-251.6 376.1zM186.6 560.9c0 0 0 0 0 0v0c0 0 0 0 0 0zM838.4 463.1c0 0 0 0 0 0v0z"></path></g>
</svg>
