<?xml version="1.0" encoding="utf-8"?>
<!-- Generator: Adobe Illustrator 17.0.0, SVG Export Plug-In . SVG Version: 6.00 Build 0)  -->
<!DOCTYPE svg PUBLIC "-//W3C//DTD SVG 1.1//EN" "http://www.w3.org/Graphics/SVG/1.1/DTD/svg11.dtd">
<svg version="1.1" id="Layer_1" xmlns="http://www.w3.org/2000/svg" xmlns:xlink="http://www.w3.org/1999/xlink" x="0px" y="0px"
	 width="1025px" height="1024px" viewBox="0 0 1025 1024" enable-background="new 0 0 1025 1024" xml:space="preserve">
<g><path d="M619.977 641.978v-611.978c0-16.57-13.429-30-29.999-30h-485.978c-16.57 0-30 13.43-30 30v395.984h114.82c16.57 0 30 13.429 30 30.001 0 16.561-13.43 29.999-30 29.999h-114.82v365.984h-44c-16.57 0-30 13.431-30 30.001 0 16.563 13.43 29.999 30 29.999h346.023v-179.991c0-24.851 10.078-47.351 26.368-63.642 16.288-16.279 38.78-26.357 63.625-26.357h153.961z"></path><path d="M669.95 701.969h-71.968v42.18c0 16.57-13.429 29.999-30.001 29.999-16.561 0-29.999-13.429-29.999-29.999v-42.18h-71.962c-16.57 0-29.999 13.438-29.999 29.999v261.993c0 16.572 13.429 30.001 29.999 30.001h203.93c16.525 0 30.001-13.476 30.001-30.001v-261.993c0-16.514-13.476-29.999-30.001-29.999z"></path><path d="M994.005 701.969h-72.023v42.18c0 16.561-13.438 29.999-30.001 29.999-16.57 0-29.999-13.438-29.999-29.999v-42.18h-72.032c-16.514 0-29.993 13.476-29.993 29.999v261.993c0 16.525 13.47 30.001 29.993 30.001h204.055c16.57 0 29.999-13.429 29.999-30.001v-261.993c0-16.561-13.429-29.999-29.999-29.999z"></path><path d="M994.005 319.979h-111.991v42.001c0 16.57-13.438 29.999-30.001 29.999-16.57 0-29.999-13.429-29.999-29.999v-42.001h-112c-16.493 0-29.993 13.5-29.993 30.001v261.82c0 16.493 13.5 29.993 29.993 29.993h283.991c16.499 0 29.999-13.5 29.999-29.993v-261.82c0-16.501-13.5-30.001-29.999-30.001z"></path></g>
</svg>
