<?xml version="1.0" encoding="utf-8"?>
<!-- Generator: Adobe Illustrator 17.0.0, SVG Export Plug-In . SVG Version: 6.00 Build 0)  -->
<!DOCTYPE svg PUBLIC "-//W3C//DTD SVG 1.1//EN" "http://www.w3.org/Graphics/SVG/1.1/DTD/svg11.dtd">
<svg version="1.1" id="Layer_1" xmlns="http://www.w3.org/2000/svg" xmlns:xlink="http://www.w3.org/1999/xlink" x="0px" y="0px"
	 width="1025px" height="1024px" viewBox="0 0 1025 1024" enable-background="new 0 0 1025 1024" xml:space="preserve">
<g><path d="M40.25 503.136c0 20.057 15.428 37.414 40.114 37.414 11.957 0 22.757-6.557 32.4-14.271l43.971-37.029v358.714c0 57.088 34.329 91.028 93.343 91.028h521.869c58.629 0 93.343-33.94 93.343-91.028v-360.643l46.29 38.957c9.257 7.714 20.055 14.271 32.010 14.271 22.758 0 40.115-14.271 40.115-36.643 0-13.114-5.012-23.529-15.043-32.014l-103.373-87.172v-164.314c0-17.357-11.182-28.157-28.539-28.157h-53.228c-16.973 0-28.544 10.8-28.544 28.157v71.742l-187.843-157.757c-33.556-28.157-75.987-28.157-109.544 0l-401.914 337.5c-10.414 8.485-15.428 20.057-15.428 31.243zM623.063 609.592c0-18.13-11.571-29.7-29.701-29.7h-161.998c-18.128 0-30.086 11.57-30.086 29.7v252.641h-130.757c-23.914 0-37.028-13.496-37.028-37.796v-399.602l261.9-219.857c10.8-9.257 23.14-9.257 33.944 0l258.816 217.543v401.916c0 24.3-13.117 37.796-37.033 37.796h-128.056v-252.641z"></path></g>
</svg>
