<?xml version="1.0" encoding="utf-8"?>
<!-- Generator: Adobe Illustrator 17.0.0, SVG Export Plug-In . SVG Version: 6.00 Build 0)  -->
<!DOCTYPE svg PUBLIC "-//W3C//DTD SVG 1.1//EN" "http://www.w3.org/Graphics/SVG/1.1/DTD/svg11.dtd">
<svg version="1.1" id="Layer_1" xmlns="http://www.w3.org/2000/svg" xmlns:xlink="http://www.w3.org/1999/xlink" x="0px" y="0px"
	 width="1025px" height="1024px" viewBox="0 0 1025 1024" enable-background="new 0 0 1025 1024" xml:space="preserve">
<g><path d="M336.105 87.885c45.511-2.062 60.036-2.56 175.91-2.56 115.876 0 130.401 0.498 175.913 2.56 69.371 3.165 130.258 20.16 179.144 69.049 48.911 48.906 65.889 109.813 69.053 179.146 2.058 45.511 2.56 60.036 2.56 175.911 0 115.874-0.502 130.399-2.56 175.911-3.164 69.371-20.163 130.258-69.053 179.149-48.906 48.906-109.829 65.884-179.144 69.048-45.512 2.063-60.037 2.56-175.913 2.56-115.874 0-130.399-0.497-175.91-2.56-69.369-3.164-130.258-20.163-179.147-69.048-48.907-48.906-65.884-109.814-69.049-179.149-2.062-45.512-2.56-60.037-2.56-175.911 0-115.876 0.498-130.4 2.56-175.911 3.165-69.369 20.16-130.257 69.049-179.146 48.907-48.907 109.814-65.885 179.147-69.049zM512.015 227.547c-77.243 0-86.932 0.32-117.279 1.706-46.222 2.116-86.826 13.44-119.431 46.027-32.587 32.587-43.911 73.191-46.027 119.431-1.387 30.347-1.707 40.035-1.707 117.28 0 77.243 0.32 86.936 1.707 117.282 2.116 46.218 13.44 86.825 46.027 119.429 32.586 32.589 73.191 43.909 119.431 46.029 30.347 1.382 40.036 1.705 117.279 1.705 77.245 0 86.932-0.323 117.279-1.705 46.223-2.12 86.83-13.44 119.434-46.029 32.584-32.589 43.909-73.19 46.024-119.429 1.388-30.346 1.71-40.038 1.71-117.282 0-77.245-0.323-86.934-1.71-117.28-2.115-46.222-13.44-86.826-46.024-119.431-32.589-32.587-73.19-43.911-119.434-46.027-30.346-1.386-40.033-1.706-117.279-1.706zM512.015 278.8c75.945 0 84.941 0.285 114.934 1.653 32.374 1.476 62.418 7.965 85.53 31.076s29.599 53.155 31.073 85.529c1.372 29.991 1.654 38.987 1.654 114.933 0 75.949-0.282 84.944-1.654 114.932-1.475 32.374-7.962 62.418-31.073 85.53s-53.156 29.599-85.53 31.078c-29.993 1.367-38.989 1.649-114.934 1.649-75.946 0-84.942-0.282-114.933-1.649-32.373-1.48-62.418-7.967-85.529-31.078s-29.6-53.156-31.075-85.53c-1.369-29.988-1.653-38.984-1.653-114.932 0-75.946 0.284-84.942 1.653-114.933 1.476-32.373 7.965-62.418 31.075-85.529s53.156-29.6 85.529-31.076c29.991-1.369 38.987-1.653 114.933-1.653zM365.955 511.992c0-80.658 65.386-146.062 146.061-146.062 80.676 0 146.063 65.404 146.063 146.062s-65.403 146.061-146.063 146.061c-80.656 0-146.061-65.403-146.061-146.061zM417.207 511.992c0 52.355 42.436 94.81 94.808 94.81s94.812-42.435 94.812-94.81c0-52.356-42.44-94.809-94.812-94.809-52.355 0-94.808 42.436-94.808 94.809zM663.854 394.285c18.852 0 34.135-15.282 34.135-34.134s-15.283-34.133-34.135-34.133c-18.847 0-34.13 15.282-34.13 34.133s15.283 34.134 34.13 34.134z"></path></g>
</svg>
