<?xml version="1.0" encoding="utf-8"?>
<!-- Generator: Adobe Illustrator 17.0.0, SVG Export Plug-In . SVG Version: 6.00 Build 0)  -->
<!DOCTYPE svg PUBLIC "-//W3C//DTD SVG 1.1//EN" "http://www.w3.org/Graphics/SVG/1.1/DTD/svg11.dtd">
<svg version="1.1" id="Layer_1" xmlns="http://www.w3.org/2000/svg" xmlns:xlink="http://www.w3.org/1999/xlink" x="0px" y="0px"
	 width="1025px" height="1024px" viewBox="0 0 1025 1024" enable-background="new 0 0 1025 1024" xml:space="preserve">
<g><path d="M646.4 358.402c-66.048-0.227-129.469 25.822-176.291 72.403s-73.196 109.873-73.309 175.916v250.88c0 10.184 4.046 19.953 11.247 27.156 7.201 7.199 16.969 11.244 27.153 11.244h89.6c21.207 0 38.4-17.193 38.4-38.4v-250.88c-0.015-23.521 9.974-45.942 27.479-61.655s40.868-23.235 64.256-20.69c42.921 5.407 75.003 42.076 74.665 85.335v247.89c0 21.207 17.193 38.4 38.4 38.4h89.6c21.207 0 38.4-17.193 38.4-38.4v-250.88c-0.113-66.043-26.486-129.334-73.308-175.916s-110.244-72.63-176.292-72.403z"></path><path d="M174.080 396.8h99.84c25.449 0 46.080 20.631 46.080 46.080v407.040c0 25.449-20.631 46.080-46.080 46.080h-99.84c-25.449 0-46.080-20.631-46.080-46.080v-407.040c0-25.449 20.631-46.080 46.080-46.080z"></path><path d="M320 224c0 53.019-42.981 96-96 96s-96-42.981-96-96c0-53.019 42.981-96 96-96s96 42.981 96 96z"></path></g>
</svg>
