<?xml version="1.0" encoding="utf-8"?>
<!-- Generator: Adobe Illustrator 17.0.0, SVG Export Plug-In . SVG Version: 6.00 Build 0)  -->
<!DOCTYPE svg PUBLIC "-//W3C//DTD SVG 1.1//EN" "http://www.w3.org/Graphics/SVG/1.1/DTD/svg11.dtd">
<svg version="1.1" id="Layer_1" xmlns="http://www.w3.org/2000/svg" xmlns:xlink="http://www.w3.org/1999/xlink" x="0px" y="0px"
	 width="1025px" height="1024px" viewBox="0 0 1025 1024" enable-background="new 0 0 1025 1024" xml:space="preserve">
<g><path d="M745.869 974.202c84.371 0 141.747-24.109 193.818-80.518 3.379-3.859 6.752-8.198 10.125-12.058 28.448-31.821 42.432-65.088 42.432-95.942 0-36.16-19.29-68.947-62.202-98.362l-143.674-100.283c-45.325-31.339-97.875-33.75-138.374 6.75l-35.681 35.679c-12.536 12.536-24.589 13.502-39.053 3.375-26.036-17.357-75.214-60.75-108.964-94.5-34.232-34.232-68.946-72.804-87.75-102.214-10.125-14.947-9.161-26.518 3.375-39.053l35.679-35.679c40.5-40.5 38.090-93.053 6.268-138.375l-102.214-146.089c-28.447-41.464-62.678-60.75-98.839-61.232-30.858-0.482-63.643 13.5-95.464 41.464-3.857 3.375-7.715 6.75-11.572 10.125-57.375 52.554-81.964 108.964-81.964 196.714 0 142.232 82.447 310.018 243 469.61 159.589 158.624 325.446 240.589 471.056 240.589zM745.869 893.683c-122.949 1.926-275.788-85.338-409.824-218.413-135-133.071-224.678-291.696-222.75-414.643 0.964-51.589 19.286-96.911 55.446-128.732 3.857-2.893 6.75-5.303 10.607-8.196 13.5-11.572 27.964-17.839 41.464-17.839 13.982 0 26.518 5.786 36.161 20.25l90.161 135.482c11.571 16.393 12.054 35.197-4.822 51.589l-38.572 38.090c-36.643 35.679-33.268 77.625-10.125 110.411 26.036 36.161 74.732 91.607 115.715 132.107 43.875 43.393 103.661 96.912 138.375 121.981 32.785 23.142 74.732 26.522 110.413-10.125l38.086-38.573c15.91-16.87 34.714-16.39 51.59-5.299l133.069 88.71c14.95 9.645 20.25 21.696 20.25 35.68 0 13.498-6.266 27.968-17.837 41.946-2.893 3.379-5.306 6.272-8.198 10.125-31.821 36.646-77.139 54.963-129.21 55.45z"></path></g>
</svg>
