<?xml version="1.0" encoding="utf-8"?>
<!-- Generator: Adobe Illustrator 17.0.0, SVG Export Plug-In . SVG Version: 6.00 Build 0)  -->
<!DOCTYPE svg PUBLIC "-//W3C//DTD SVG 1.1//EN" "http://www.w3.org/Graphics/SVG/1.1/DTD/svg11.dtd">
<svg version="1.1" id="Layer_1" xmlns="http://www.w3.org/2000/svg" xmlns:xlink="http://www.w3.org/1999/xlink" x="0px" y="0px"
	 width="1025px" height="1024px" viewBox="0 0 1025 1024" enable-background="new 0 0 1025 1024" xml:space="preserve">
<g><path fill="rgb(0, 0, 0)" d="M512 0c-282.767 0-512 229.233-512 512 0 104.060 31.126 200.828 84.462 281.636l-84.462 230.364 238.257-79.411c79.183 50.21 173.022 79.411 273.743 79.411 282.767 0 512-229.233 512-512s-229.233-512-512-512z"></path><path fill="rgb(255, 255, 255)" d="M794.473 670.155v85.045c0.124 31.319-25.212 56.796-56.582 56.937-1.786 0-3.567-0.068-5.35-0.228-87.411-9.481-171.379-39.283-245.143-87.040-68.625-43.52-126.818-101.606-170.443-170.108-48.004-73.958-77.877-158.174-87.198-245.796-2.825-31.181 20.215-58.756 51.462-61.583 1.694-0.124 3.373-0.211 5.069-0.211h85.222c28.514-0.282 52.823 20.585 56.813 48.764 3.603 27.223 10.276 53.935 19.881 79.659 7.804 20.73 2.807 44.085-12.781 59.817l-36.070 35.998c40.429 70.974 99.328 129.749 170.441 170.108l36.070-35.998c15.767-15.571 39.177-20.548 59.94-12.764 25.777 9.604 52.542 16.26 79.821 19.844 28.563 4.026 49.572 28.781 48.849 57.557z"></path></g>
</svg>
