<?xml version="1.0" encoding="utf-8"?>
<!-- Generator: Adobe Illustrator 17.0.0, SVG Export Plug-In . SVG Version: 6.00 Build 0)  -->
<!DOCTYPE svg PUBLIC "-//W3C//DTD SVG 1.1//EN" "http://www.w3.org/Graphics/SVG/1.1/DTD/svg11.dtd">
<svg version="1.1" id="Layer_1" xmlns="http://www.w3.org/2000/svg" xmlns:xlink="http://www.w3.org/1999/xlink" x="0px" y="0px"
	 width="1025px" height="1024px" viewBox="0 0 1025 1024" enable-background="new 0 0 1025 1024" xml:space="preserve">
<g><path d="M780.787 1009.779c-423.143-0.55-766.030-343.437-766.579-766.579 0-126.461 102.517-228.978 228.978-228.978 12.86-0.098 25.698 1.069 38.329 3.484 12.211 1.807 24.215 4.808 35.84 8.96 16.635 5.837 28.943 20.037 32.355 37.333l68.195 298.667c3.735 16.472-1.138 33.715-12.942 45.795-6.471 6.969-6.969 7.467-68.195 39.325 49.031 107.563 135.057 193.941 242.419 243.413 32.354-61.726 32.853-62.221 39.821-68.693 12.083-11.806 29.325-16.678 45.794-12.941l298.667 68.194c16.73 3.883 30.276 16.111 35.84 32.354 4.203 11.814 7.369 23.974 9.459 36.339 2.005 12.51 3.004 25.161 2.987 37.833-1.911 125.875-105.084 226.603-230.967 225.493z"></path></g>
</svg>
