<?xml version="1.0" encoding="utf-8"?>
<!-- Generator: Adobe Illustrator 17.0.0, SVG Export Plug-In . SVG Version: 6.00 Build 0)  -->
<!DOCTYPE svg PUBLIC "-//W3C//DTD SVG 1.1//EN" "http://www.w3.org/Graphics/SVG/1.1/DTD/svg11.dtd">
<svg version="1.1" id="Layer_1" xmlns="http://www.w3.org/2000/svg" xmlns:xlink="http://www.w3.org/1999/xlink" x="0px" y="0px"
	 width="1025px" height="1024px" viewBox="0 0 1025 1024" enable-background="new 0 0 1025 1024" xml:space="preserve">
<g><path d="M729.591 891.307c6.071 3.113 12.802 4.721 19.627 4.693 9.423 0.435 18.726-2.266 26.453-7.68 13.515-9.681 20.177-26.334 17.067-42.667l-42.667-240.213 175.787-170.667c11.177-11.153 15.279-27.565 10.667-42.667-5.045-15.469-18.451-26.722-34.56-29.013l-243.2-35.413-108.373-218.452c-7.13-14.72-22.046-24.069-38.4-24.069-16.356 0-31.27 9.349-38.4 24.069l-107.093 218.879-243.2 35.413c-16.11 2.291-29.515 13.545-34.56 29.013-4.613 15.102-0.51 31.514 10.667 42.667l175.787 170.667-42.667 240.213c-2.85 16.036 3.68 32.297 16.828 41.907 13.15 9.613 30.622 10.901 45.039 3.319l217.6-113.92 217.6 113.92zM531.633 691.627c-6.022-3.249-12.787-4.866-19.627-4.693-7.132-1.419-14.517-0.828-21.333 1.707l-160.853 85.333 30.72-177.493c2.419-13.926-2.214-28.147-12.373-37.973l-128-125.013 179.2-26.453c13.788-1.995 25.734-10.596 32-23.040l80.64-160 80.64 160c5.713 12.335 16.964 21.21 30.293 23.893l179.2 26.453-128 125.013c-10.161 9.826-14.795 24.047-12.373 37.973l30.72 179.627-160.853-85.333z"></path></g>
</svg>
