<?xml version="1.0" encoding="utf-8"?>
<!-- Generator: Adobe Illustrator 17.0.0, SVG Export Plug-In . SVG Version: 6.00 Build 0)  -->
<!DOCTYPE svg PUBLIC "-//W3C//DTD SVG 1.1//EN" "http://www.w3.org/Graphics/SVG/1.1/DTD/svg11.dtd">
<svg version="1.1" id="Layer_1" xmlns="http://www.w3.org/2000/svg" xmlns:xlink="http://www.w3.org/1999/xlink" x="0px" y="0px"
	 width="1025px" height="1024px" viewBox="0 0 1025 1024" enable-background="new 0 0 1025 1024" xml:space="preserve">
<g><path d="M1018.236 333.449l-159.998-223.998c-6.4-8.32-16-13.44-26.24-13.44h-639.994c-10.24 0-19.84 5.12-26.24 13.44l-159.998 223.998c-1.92 5.76-3.84 11.52-5.76 17.28-0.64 71.038 56.959 129.278 127.999 129.278 38.4 0 72.319-16.64 95.998-43.52 23.68 26.88 57.6 43.52 96 43.52s72.32-16.64 96-43.52c23.678 26.88 57.598 43.52 95.998 43.52s72.32-16.64 96-43.52c23.68 26.88 57.598 43.52 95.998 43.52s72.32-16.64 96-43.52c23.68 26.88 57.6 43.52 95.998 43.52 71.040 0 128.64-58.24 128-129.278-1.92-5.76-3.84-11.52-5.76-17.28z"></path><path d="M895.991 544.002c-33.984 0-67.072-9.088-95.998-25.856-57.856 33.472-134.144 33.472-191.998 0-57.856 33.472-134.208 33.472-192 0-57.79 33.472-134.206 33.472-191.998 0-48.063 27.904-107.582 31.488-159.998 13.376v332.476c0 35.328 28.672 64 63.999 64h511.994v-319.998h191.998v319.998h64c35.328 0 64-28.672 64-64v-331.708c-20.352 7.232-41.792 11.712-64 11.712zM447.996 800h-255.997v-192h255.997v192z"></path></g>
</svg>
