<?xml version="1.0" encoding="utf-8"?>
<!-- Generator: Adobe Illustrator 17.0.0, SVG Export Plug-In . SVG Version: 6.00 Build 0)  -->
<!DOCTYPE svg PUBLIC "-//W3C//DTD SVG 1.1//EN" "http://www.w3.org/Graphics/SVG/1.1/DTD/svg11.dtd">
<svg version="1.1" id="Layer_1" xmlns="http://www.w3.org/2000/svg" xmlns:xlink="http://www.w3.org/1999/xlink" x="0px" y="0px"
	 width="1025px" height="1024px" viewBox="0 0 1025 1024" enable-background="new 0 0 1025 1024" xml:space="preserve">
<g><path d="M738.56 678.4l145.067 144.64c8.077 8.013 12.621 18.918 12.621 30.293s-4.544 22.281-12.621 30.293c-8.013 8.077-18.918 12.621-30.293 12.621s-22.281-4.544-30.293-12.621l-144.64-145.067c-59.627 46.805-133.261 72.201-209.067 72.107-188.513 0-341.333-152.819-341.333-341.333s152.82-341.333 341.333-341.333c188.514 0 341.333 152.82 341.333 341.333 0.094 75.806-25.301 149.44-72.107 209.067zM469.333 213.333c-141.385 0-256 114.615-256 256s114.615 256 256 256c141.385 0 256-114.615 256-256s-114.615-256-256-256z"></path></g>
</svg>
