<?xml version="1.0" encoding="utf-8"?>
<!-- Generator: Adobe Illustrator 17.0.0, SVG Export Plug-In . SVG Version: 6.00 Build 0)  -->
<!DOCTYPE svg PUBLIC "-//W3C//DTD SVG 1.1//EN" "http://www.w3.org/Graphics/SVG/1.1/DTD/svg11.dtd">
<svg version="1.1" id="Layer_1" xmlns="http://www.w3.org/2000/svg" xmlns:xlink="http://www.w3.org/1999/xlink" x="0px" y="0px"
	 width="1025px" height="1024px" viewBox="0 0 1025 1024" enable-background="new 0 0 1025 1024" xml:space="preserve">
<g><path d="M53.895 26.947h916.211c29.642 0 53.895 24.253 53.895 53.895v323.368c0 29.642-24.253 53.895-53.895 53.895h-916.211c-29.642 0-53.895-24.253-53.895-53.895v-323.368c0-29.642 24.253-53.895 53.895-53.895zM53.895 565.895h916.211c29.642 0 53.895 24.253 53.895 53.895v323.368c0 29.642-24.253 53.895-53.895 53.895h-916.211c-29.642 0-53.895-24.253-53.895-53.895v-323.368c0-29.642 24.253-53.895 53.895-53.895z"></path></g>
</svg>
