<?xml version="1.0" encoding="utf-8"?>
<!-- Generator: Adobe Illustrator 17.0.0, SVG Export Plug-In . SVG Version: 6.00 Build 0)  -->
<!DOCTYPE svg PUBLIC "-//W3C//DTD SVG 1.1//EN" "http://www.w3.org/Graphics/SVG/1.1/DTD/svg11.dtd">
<svg version="1.1" id="Layer_1" xmlns="http://www.w3.org/2000/svg" xmlns:xlink="http://www.w3.org/1999/xlink" x="0px" y="0px"
	 width="1025px" height="1024px" viewBox="0 0 1025 1024" enable-background="new 0 0 1025 1024" xml:space="preserve">
<g><path d="M682.667 256h213.333c23.565 0 42.667 19.102 42.667 42.667s-19.102 42.667-42.667 42.667h-42.667v469.333c0 70.694-57.306 128-128 128h-426.667c-70.692 0-128-57.306-128-128v-469.333h-42.667c-23.564 0-42.667-19.103-42.667-42.667s19.103-42.667 42.667-42.667h213.333v-71.253c2.084-56.87 49.79-101.333 106.667-99.413h128c56.875-1.92 104.585 42.543 106.667 99.413v71.253zM384 725.333c23.564 0 42.667-19.102 42.667-42.667v-170.667c0-23.565-19.103-42.667-42.667-42.667s-42.667 19.102-42.667 42.667v170.667c0 23.565 19.103 42.667 42.667 42.667zM426.667 184.747c0-6.827 8.96-14.080 21.333-14.080h128c12.373 0 21.333 7.253 21.333 14.080v71.253h-170.667v-71.253zM640 725.333c23.565 0 42.667-19.102 42.667-42.667v-170.667c0-23.565-19.102-42.667-42.667-42.667s-42.667 19.102-42.667 42.667v170.667c0 23.565 19.102 42.667 42.667 42.667z"></path></g>
</svg>
