<?xml version="1.0" encoding="utf-8"?>
<!-- Generator: Adobe Illustrator 17.0.0, SVG Export Plug-In . SVG Version: 6.00 Build 0)  -->
<!DOCTYPE svg PUBLIC "-//W3C//DTD SVG 1.1//EN" "http://www.w3.org/Graphics/SVG/1.1/DTD/svg11.dtd">
<svg version="1.1" id="Layer_1" xmlns="http://www.w3.org/2000/svg" xmlns:xlink="http://www.w3.org/1999/xlink" x="0px" y="0px"
	 width="1025px" height="1024px" viewBox="0 0 1025 1024" enable-background="new 0 0 1025 1024" xml:space="preserve">
<g><path d="M344.743 853.335c127.463 4.265 251.235-43.197 343.165-131.594s144.205-210.209 144.942-337.741c28.913-35.78 50.381-76.978 63.145-121.174 1.946-7.133-0.471-14.744-6.185-19.44-5.709-4.697-13.645-5.605-20.265-2.32-31.017 14.93-68.101 8.406-92.16-16.214-30.264-33.138-72.653-52.61-117.509-53.976s-88.351 15.489-120.571 46.723c-44.42 43.016-63.041 106.166-49.069 166.4-142.934 8.533-241.066-59.307-319.574-152.32-4.819-5.458-12.409-7.549-19.344-5.33s-11.9 8.328-12.656 15.57c-30.629 169.906 47.653 340.936 196.267 428.8-48.655 55.803-116.983 90.65-190.72 97.28-8.099 1.341-14.448 7.685-15.798 15.785s2.599 16.159 9.824 20.055c64.15 32.056 134.794 48.988 206.506 49.495z"></path></g>
</svg>
