<?xml version="1.0" encoding="utf-8"?>
<!-- Generator: Adobe Illustrator 17.0.0, SVG Export Plug-In . SVG Version: 6.00 Build 0)  -->
<!DOCTYPE svg PUBLIC "-//W3C//DTD SVG 1.1//EN" "http://www.w3.org/Graphics/SVG/1.1/DTD/svg11.dtd">
<svg version="1.1" id="Layer_1" xmlns="http://www.w3.org/2000/svg" xmlns:xlink="http://www.w3.org/1999/xlink" x="0px" y="0px"
	 width="1025px" height="1024px" viewBox="0 0 1025 1024" enable-background="new 0 0 1025 1024" xml:space="preserve">
<g><path d="M877.227 392.96l104.107 119.040-104.107 119.040 14.507 157.44-154.027 34.987-80.64 136.107-145.067-62.293-145.067 62.72-80.64-136.107-154.027-34.987 14.507-157.867-104.107-119.040 104.107-119.467-14.507-157.867 154.027-34.56 80.64-136.107 145.067 62.293 145.067-62.293 80.64 136.533 154.027 34.987-14.507 157.44zM268.373 550.827l162.133 162.56 312.747-313.6-63.147-63.147-249.6 250.453-98.987-99.413-63.147 63.147z"></path></g>
</svg>
