<?xml version="1.0" encoding="utf-8"?>
<!-- Generator: Adobe Illustrator 17.0.0, SVG Export Plug-In . SVG Version: 6.00 Build 0)  -->
<!DOCTYPE svg PUBLIC "-//W3C//DTD SVG 1.1//EN" "http://www.w3.org/Graphics/SVG/1.1/DTD/svg11.dtd">
<svg version="1.1" id="Layer_1" xmlns="http://www.w3.org/2000/svg" xmlns:xlink="http://www.w3.org/1999/xlink" x="0px" y="0px"
	 width="1025px" height="1024px" viewBox="0 0 1025 1024" enable-background="new 0 0 1025 1024" xml:space="preserve">
<g><path d="M273.568 461.803h-173.176c-31.749 0-57.725-25.975-57.725-57.725v-230.902c0-31.749 25.976-57.725 57.725-57.725h173.176c31.749 0 57.726 25.977 57.726 57.725v230.902c0 31.749-25.977 57.725-57.726 57.725zM273.568 865.882h-173.176c-31.749 0-57.725-25.975-57.725-57.724v-230.903c0-31.748 25.976-57.724 57.725-57.724h173.176c31.749 0 57.726 25.975 57.726 57.724v230.903c0 31.748-25.977 57.724-57.726 57.724zM446.746 865.882h173.175c31.748 0 57.728-25.975 57.728-57.724v-230.903c0-31.748-25.98-57.724-57.728-57.724h-173.175c-31.75 0-57.726 25.975-57.726 57.724v230.903c0 31.748 25.976 57.724 57.726 57.724zM966.276 865.882h-173.18c-31.748 0-57.724-25.975-57.724-57.724v-230.903c0-31.748 25.975-57.724 57.724-57.724h173.18c31.748 0 57.724 25.975 57.724 57.724v230.903c0 31.748-25.975 57.724-57.724 57.724zM446.746 461.803h173.175c31.748 0 57.728-25.975 57.728-57.724v-230.902c0-31.749-25.98-57.725-57.728-57.725h-173.175c-31.75 0-57.726 25.977-57.726 57.725v230.902c0 31.749 25.976 57.724 57.726 57.724zM735.373 404.079v-230.902c0-31.749 25.975-57.725 57.724-57.725h173.18c31.748 0 57.724 25.977 57.724 57.725v230.902c0 31.749-25.975 57.724-57.724 57.724h-173.18c-31.748 0-57.724-25.975-57.724-57.724z"></path></g>
</svg>
