<?xml version="1.0" encoding="utf-8"?>
<!-- Generator: Adobe Illustrator 17.0.0, SVG Export Plug-In . SVG Version: 6.00 Build 0)  -->
<!DOCTYPE svg PUBLIC "-//W3C//DTD SVG 1.1//EN" "http://www.w3.org/Graphics/SVG/1.1/DTD/svg11.dtd">
<svg version="1.1" id="Layer_1" xmlns="http://www.w3.org/2000/svg" xmlns:xlink="http://www.w3.org/1999/xlink" x="0px" y="0px"
	 width="1025px" height="1024px" viewBox="0 0 1025 1024" enable-background="new 0 0 1025 1024" xml:space="preserve">
<g><path d="M511.68 832.047c182.251 0 332.676-150.43 332.676-332.681 0-159.429-115.392-294.429-266.142-325.607v-47.25c0-24.429-18.321-31.5-38.251-17.036l-108.642 76.822c-16.393 11.893-16.393 29.893 0 41.464l108.322 77.143c19.93 14.464 38.571 8.036 38.571-17.036v-46.286c115.072 29.25 199.287 133.071 199.287 257.786 0 147.537-118.289 266.142-265.822 266.142-147.537 0-266.144-118.605-265.823-266.142 0.321-85.821 40.5-160.714 103.5-209.25 15.107-13.178 19.929-32.143 8.357-47.893-10.607-15.107-31.5-17.679-48.857-3.536-78.107 58.5-129.536 156.857-129.536 260.679 0 182.251 150.429 332.681 332.358 332.681z"></path></g>
</svg>
