<?xml version="1.0" encoding="utf-8"?>
<!-- Generator: Adobe Illustrator 17.0.0, SVG Export Plug-In . SVG Version: 6.00 Build 0)  -->
<!DOCTYPE svg PUBLIC "-//W3C//DTD SVG 1.1//EN" "http://www.w3.org/Graphics/SVG/1.1/DTD/svg11.dtd">
<svg version="1.1" id="Layer_1" xmlns="http://www.w3.org/2000/svg" xmlns:xlink="http://www.w3.org/1999/xlink" x="0px" y="0px"
	 width="1025px" height="1024px" viewBox="0 0 1025 1024" enable-background="new 0 0 1025 1024" xml:space="preserve">
<g><path d="M392.75 682.257h374.145c15.104 0 28.928-11.891 28.928-28.928 0-16.713-13.824-28.608-28.928-28.608h-366.752c-15.429 0-25.071-10.607-27.322-26.999l-4.821-33.425h401.463c49.178 0 75.217-29.897 82.287-78.75l24.107-161.038c0.644-4.179 1.284-9.643 1.284-13.178 0-18.964-13.175-31.822-35.354-31.822h-515.252l-4.821-34.714c-4.179-27.964-15.429-42.107-51.107-42.107h-110.25c-16.071 0-30.214 14.143-30.214 30.536 0 16.714 14.143 30.857 30.214 30.857h100.607l49.821 340.071c7.072 48.538 32.786 78.106 81.964 78.106zM810.287 337.044l-20.25 142.712c-2.573 16.397-11.251 26.679-26.999 26.679l-403.395 0.324-24.75-169.716h475.394zM419.107 843.618c31.18 0 56.25-25.075 56.25-56.252 0-31.181-25.071-56.252-56.25-56.252s-56.25 25.071-56.25 56.252c0 31.177 25.071 56.252 56.25 56.252zM716.109 843.618c31.177 0 55.927-25.075 55.927-56.252 0-31.181-24.751-56.252-55.927-56.252-31.181 0-56.572 25.071-56.572 56.252 0 31.177 25.391 56.252 56.572 56.252z"></path></g>
</svg>
