<?xml version="1.0" encoding="utf-8"?>
<!-- Generator: Adobe Illustrator 17.0.0, SVG Export Plug-In . SVG Version: 6.00 Build 0)  -->
<!DOCTYPE svg PUBLIC "-//W3C//DTD SVG 1.1//EN" "http://www.w3.org/Graphics/SVG/1.1/DTD/svg11.dtd">
<svg version="1.1" id="Layer_1" xmlns="http://www.w3.org/2000/svg" xmlns:xlink="http://www.w3.org/1999/xlink" x="0px" y="0px"
	 width="1025px" height="1024px" viewBox="0 0 1025 1024" enable-background="new 0 0 1025 1024" xml:space="preserve">
<g><path d="M186.393 409.037c0 137.249 115.393 272.892 294.748 388.604 9.966 6.429 22.181 12.859 30.537 12.859s20.571-6.429 30.537-12.859c179.679-115.712 294.747-251.355 294.747-388.604 0-118.608-81.964-200.894-187.070-200.894-61.392 0-109.286 27.964-138.214 70.393-28.284-42.107-76.5-70.393-137.893-70.393-105.428 0-187.393 82.286-187.393 200.894zM252.607 408.715c0-81.001 53.357-135.965 125.037-135.965 57.856 0 90.32 35.036 110.57 65.571 9 13.179 15.108 17.357 23.464 17.357 8.678 0 14.142-4.5 23.464-17.357 21.859-29.893 53.036-65.571 110.57-65.571 72.002 0 125.36 54.964 125.36 135.965 0 113.141-117.643 238.501-253.286 328.499-2.893 1.927-4.82 3.215-6.107 3.215-1.284 0-3.215-1.287-5.786-3.215-135.643-89.999-253.285-215.358-253.285-328.499z"></path></g>
</svg>
