<?xml version="1.0" encoding="utf-8"?>
<!-- Generator: Adobe Illustrator 17.0.0, SVG Export Plug-In . SVG Version: 6.00 Build 0)  -->
<!DOCTYPE svg PUBLIC "-//W3C//DTD SVG 1.1//EN" "http://www.w3.org/Graphics/SVG/1.1/DTD/svg11.dtd">
<svg version="1.1" id="Layer_1" xmlns="http://www.w3.org/2000/svg" xmlns:xlink="http://www.w3.org/1999/xlink" x="0px" y="0px"
	 width="1025px" height="1024px" viewBox="0 0 1025 1024" enable-background="new 0 0 1025 1024" xml:space="preserve">
<g><path d="M237.178 778.347h549.322c69.751 0 105.749-36.318 105.749-105.105v-347.143c0-68.786-35.998-104.786-105.749-104.786h-549.322c-69.428 0-105.75 36-105.75 104.786v347.143c0 69.107 36.322 105.105 105.75 105.105zM195.393 331.884c0-30.857 16.393-46.286 45.964-46.286h540.966c29.568 0 45.961 15.429 45.961 46.286v23.143h-632.891v-23.143zM241.357 714.061c-29.571 0-45.964-15.428-45.964-46.285v-237.214h632.891v237.214c0 30.857-16.393 46.285-45.961 46.285h-540.966zM285.071 655.885h78.75c18.964 0 31.822-12.535 31.822-30.537v-59.785c0-18.001-12.857-30.537-31.822-30.537h-78.75c-18.643 0-31.5 12.535-31.5 30.537v59.785c0 18.001 12.857 30.537 31.5 30.537z"></path></g>
</svg>
