<?xml version="1.0" encoding="utf-8"?>
<!-- Generator: Adobe Illustrator 17.0.0, SVG Export Plug-In . SVG Version: 6.00 Build 0)  -->
<!DOCTYPE svg PUBLIC "-//W3C//DTD SVG 1.1//EN" "http://www.w3.org/Graphics/SVG/1.1/DTD/svg11.dtd">
<svg version="1.1" id="Layer_1" xmlns="http://www.w3.org/2000/svg" xmlns:xlink="http://www.w3.org/1999/xlink" x="0px" y="0px"
	 width="1025px" height="1024px" viewBox="0 0 1025 1024" enable-background="new 0 0 1025 1024" xml:space="preserve">
<g><path d="M825.713 311.586c-74.491-58.61-180.007-42.383-263.593-21.695-13.445 3.335-27.235 4.953-41.056 5.553-2.195-11.039-4.929-22.108-8.272-33.092l64.601-9.626c82.743-12.312 146.633-76.203 158.954-158.945l9.532-64.031c0.828-2.227 1.14-4.547 1.022-6.898l3.383-22.852-93.781 13.961c-82.741 12.336-146.632 76.203-158.952 158.953l-5.618 37.765c-19.171-36.797-46.749-68.992-84.789-89.289-8.46-4.516-18.906-1.297-23.421 7.125-4.5 8.445-1.306 18.914 7.124 23.414 52.813 28.156 81.946 85.133 94.681 142.39-8.078-1.015-16.087-2.437-23.992-4.405-83.594-20.697-189.141-36.939-263.601 21.695-66.703 52.499-98.75 156.421-97.914 317.687 0.609 119.148 69.219 256.594 166.859 334.249 64.478 51.297 133.813 70.516 200.399 55.485 29.165-6.579 59.93-6.579 89.079 0 14.742 3.319 29.585 4.96 44.476 4.96 52.524 0 105.687-20.483 155.923-60.445 97.64-77.672 166.234-215.117 166.859-334.249 0.843-161.29-31.188-265.204-97.9-317.711zM572.283 218.499l-15.171 2.266 147.241-147.242-2.265 15.172c-10.032 67.57-62.211 119.75-129.806 129.804zM661.605 48.195l22.508-3.352-155.68 155.679 3.36-22.523c10.045-67.571 62.225-119.735 129.812-129.805zM735.229 936.468c-39.023 31.070-100.367 64.812-171.25 48.788-17.055-3.835-34.601-5.757-52.156-5.757-17.539 0-35.086 1.922-52.14 5.757-70.743 15.985-132.227-17.71-171.25-48.788-88.562-70.461-153.242-199.702-153.797-307.359-0.781-149.907 26.938-244.867 84.704-290.328 48.922-38.492 121.093-43.196 233.905-15.297 12.532 3.101 25.313 4.811 38.164 5.883 0.985 8.859 1.64 17.592 1.922 26.078 0.288 9.351 7.977 16.742 17.265 16.742h0.555c9.562-0.312 17.039-8.289 16.742-17.836-0.258-8.008-0.882-16.266-1.725-24.602 14.897-0.867 29.734-2.664 44.249-6.243 112.812-27.89 184.97-23.178 233.914 15.29 57.783 45.469 85.477 140.445 84.704 290.343-0.539 107.602-65.242 236.867-153.805 307.328z"></path><path fill="rgb(255, 255, 255)" d="M342.216 349.252c-85.85 0-155.694 77.609-155.694 172.993 0 9.554 7.733 17.304 17.295 17.304 9.571 0 17.306-7.75 17.306-17.304 0-76.305 54.335-138.399 121.093-138.399 9.571 0 17.306-7.75 17.306-17.297s-7.735-17.297-17.306-17.297z"></path><path fill="rgb(255, 255, 255)" d="M561.556 354.324c-14.046 14.046-32.695 21.78-52.507 21.78-19.804 0-38.492-7.735-52.523-21.78-6.767-6.765-17.696-6.765-24.462 0-6.758 6.765-6.765 17.71 0 24.46 20.57 20.564 47.937 31.915 76.984 31.915s56.399-11.327 76.969-31.915c6.765-6.765 6.765-17.719 0-24.46-6.765-6.765-17.703-6.765-24.462 0z"></path></g>
</svg>
