<?xml version="1.0" encoding="utf-8"?>
<!-- Generator: Adobe Illustrator 17.0.0, SVG Export Plug-In . SVG Version: 6.00 Build 0)  -->
<!DOCTYPE svg PUBLIC "-//W3C//DTD SVG 1.1//EN" "http://www.w3.org/Graphics/SVG/1.1/DTD/svg11.dtd">
<svg version="1.1" id="Layer_1" xmlns="http://www.w3.org/2000/svg" xmlns:xlink="http://www.w3.org/1999/xlink" x="0px" y="0px"
	 width="1025px" height="1024px" viewBox="0 0 1025 1024" enable-background="new 0 0 1025 1024" xml:space="preserve">
<g><path d="M727.265 524.536c-1.761-6.032-6.301-10.958-12.322-13.162-1.215-0.444-11.073-3.932-26.385-6.172 65.413-69.606 43.814-150.928 38.707-166.81-1.761-6.034-6.301-10.96-12.322-13.164-2.813-1.028-51.772-18.292-107.556 1.122 3.15-12.922 4.992-27.128 4.992-42.717 0-99.734-75.526-143.57-90.682-151.352-5.515-3.020-12.208-3.296-18.024-0.592-3.75 1.742-91.858 43.908-91.858 151.944 0 15.62 1.85 29.856 5.011 42.798-55.882-19.544-104.976-2.234-107.788-1.204-6.026 2.204-10.56 7.13-12.326 13.164-5.106 15.882-26.704 97.204 38.712 166.81-15.312 2.24-25.17 5.728-26.386 6.172-6.026 2.204-10.562 7.132-12.328 13.164-5.212 16.214-27.624 100.622 42.9 171.147 40.812 40.81 86.108 50.545 120.044 50.545 12.564 0 23.546-1.338 32.192-2.922v130.867c0 11.039 8.954 19.995 20 19.995s20-8.957 20-19.995v-130.922c8.686 1.611 19.775 2.976 32.476 2.976 33.934 0 79.236-9.742 120.044-50.545 70.526-70.529 48.114-154.935 42.899-171.149zM491.847 680.96c-0.444 9.079-1.718 16.705-2.936 22.193-21.378 4.751-74.866 10.397-121.014-35.755-45.454-45.45-40.69-98.052-35.658-121.004 13.442-2.922 39.672-6.178 68.712 3.246 1.911 0.715 3.817 1.392 5.714 2.022 15.38 5.832 31.348 15.352 46.481 30.484 28.839 28.838 37.45 60.538 38.7 85.47v13.344zM491.847 494.818c-0.444 9.078-1.718 16.708-2.936 22.192-13.246 2.946-38.818 6.216-67.332-2.684-2.89-1.114-5.764-2.128-8.618-3.046-14.916-5.892-30.362-15.324-45.066-30.026-45.452-45.452-40.688-98.052-35.656-121.002 21.358-4.644 74.996-10.16 120.908 35.752 0.292 0.292 0.556 0.586 0.842 0.876 1.754 1.968 3.514 3.85 5.272 5.658 23.938 27.022 31.43 55.874 32.586 78.936v13.344zM512.129 394.47c-6.268-4.020-15.3-10.646-24.474-20.224-0.936-1.026-1.881-2.052-2.854-3.074-16.71-18.562-32.989-47.036-32.989-87.538 0-65.194 41.72-99.019 60.183-110.795 19.771 12.652 60.382 46.478 60.382 110.795 0 38.22-14.342 65.645-29.926 84.18-3.24 3.244-6.272 6.52-9.13 9.812-7.996 7.774-15.654 13.316-21.192 16.844zM531.971 488.336c-0.028-23.48 6.046-54.552 30.915-83.732 2.946-2.929 5.908-6.078 8.844-9.464 45.894-45.142 98.758-39.628 120.003-34.928 5.031 22.93 9.83 75.564-35.652 121.042-14.676 14.678-30.092 24.102-44.982 29.998-2.901 0.932-5.824 1.962-8.763 3.096-28.51 8.886-54.067 5.604-67.26 2.669-1.48-6.666-3.048-16.456-3.106-28.17 0-0.17 0.002-0.34 0.002-0.51zM656.081 667.398c-46.156 46.159-99.646 40.507-120.974 35.769-4.65-21.273-10.272-75.025 35.724-121.021 14.716-14.716 30.174-24.15 45.102-30.042 2.847-0.916 5.714-1.924 8.595-3.036 28.452-8.88 53.966-5.64 67.204-2.714 5.031 22.932 9.83 75.566-35.652 121.044z"></path><path fill="rgb(0, 171, 85)" opacity="0.5" d="M618.712 11.142c-34.862-7.392-70.766-11.142-106.712-11.142-136.76 0-265.334 53.256-362.038 149.962-96.704 96.704-149.962 225.278-149.962 362.038 0 113.956 38.34 225.191 108.192 314.764-7.857 12.151-12.088 26.317-12.088 41.131 0 20.303 7.906 39.39 22.26 53.746 14.354 14.35 33.44 22.255 53.74 22.255s39.386-7.905 53.74-22.255c14.356-14.356 22.26-33.444 22.26-53.746 0-20.296-7.906-39.383-22.26-53.74-14.354-14.35-33.44-22.262-53.74-22.262-12.032 0-23.63 2.799-34.076 8.055-63.304-82.179-98.028-183.827-98.028-287.949 0-260.262 211.738-472 472-472 33.164 0 66.274 3.456 98.414 10.272 10.812 2.29 21.422-4.612 23.714-15.416 2.292-10.806-4.61-21.422-15.416-23.714zM146.648 842.438c7.018-7.018 16.237-10.527 25.456-10.527s18.438 3.509 25.457 10.527c6.799 6.799 10.544 15.845 10.544 25.457 0 9.619-3.744 18.657-10.544 25.457-14.036 14.042-36.876 14.036-50.913 0-6.8-6.799-10.544-15.838-10.544-25.457 0-9.612 3.744-18.657 10.544-25.457z"></path><path fill="rgb(0, 171, 85)" opacity="0.5" d="M915.818 197.239c7.857-12.156 12.083-26.316 12.083-41.136 0-20.3-7.905-39.386-22.255-53.74-14.356-14.356-33.444-22.26-53.74-22.26-20.303 0-39.39 7.906-53.746 22.26-14.35 14.354-22.255 33.44-22.255 53.74s7.905 39.386 22.255 53.74c14.356 14.356 33.444 22.26 53.746 22.26 12.029 0 23.627-2.798 34.072-8.050 63.304 82.177 98.031 183.826 98.031 287.947 0 260.259-211.743 472.002-472.002 472.002-27.998 0-56.050-2.471-83.376-7.339-10.868-1.932-21.262 5.304-23.198 16.179-1.938 10.875 5.306 21.265 16.18 23.197 29.638 5.284 60.050 7.96 90.394 7.96 136.76 0 265.331-53.255 362.038-149.961 96.707-96.7 149.961-225.278 149.961-362.038 0-113.955-38.339-225.194-108.189-314.762zM877.363 181.559c-6.799 6.8-15.845 10.544-25.457 10.544-9.619 0-18.657-3.742-25.457-10.544-14.036-14.036-14.036-36.874 0-50.912 6.799-6.8 15.838-10.544 25.457-10.544 9.612 0 18.657 3.744 25.457 10.544 6.799 6.798 10.54 15.84 10.54 25.456s-3.741 18.657-10.54 25.456z"></path><path fill="rgb(0, 171, 85)" opacity="0.5" d="M336.277 950.204l-7.552 18.521 7.496-18.541c-10.245-4.137-21.898 0.806-26.038 11.046s0.806 21.9 11.046 26.037l0.618 0.246c2.358 0.901 4.785 1.331 7.174 1.331 8.055 0 15.67-4.874 18.717-12.834 3.953-10.315-1.146-21.852-11.462-25.805z"></path><path fill="rgb(0, 171, 85)" opacity="0.5" d="M703.659 37.085l-0.355-0.142c-10.254-4.104-21.897 0.886-26.001 11.142s0.886 21.892 11.139 25.996l0.232 0.091c2.458 0.993 4.99 1.46 7.482 1.46 7.912 0 15.408-4.726 18.555-12.512 4.137-10.242-0.812-21.898-11.052-26.036z"></path></g>
</svg>
