<?xml version="1.0" encoding="utf-8"?>
<!-- Generator: Adobe Illustrator 17.0.0, SVG Export Plug-In . SVG Version: 6.00 Build 0)  -->
<!DOCTYPE svg PUBLIC "-//W3C//DTD SVG 1.1//EN" "http://www.w3.org/Graphics/SVG/1.1/DTD/svg11.dtd">
<svg version="1.1" id="Layer_1" xmlns="http://www.w3.org/2000/svg" xmlns:xlink="http://www.w3.org/1999/xlink" x="0px" y="0px"
	 width="1025px" height="1024px" viewBox="0 0 1025 1024" enable-background="new 0 0 1025 1024" xml:space="preserve">
<g ><path fill="rgb(0, 0, 0)" stroke="rgb(0, 0, 0)" stroke-linejoin="miter" stroke-linecap="butt" stroke-miterlimit="4" stroke-width="11.377777777777778" d="M896 456.537h-5.689v79.468c0 6.431-5.896 12.529-14.311 12.529s-14.311-6.098-14.311-12.529v-91.996c0-6.43 5.896-12.528 14.311-12.528h128c8.415 0 14.311 6.098 14.311 12.528v516.002c0 6.43-5.896 12.529-14.311 12.529h-944c-30.454 0-54.311-22.459-54.311-48.963v-823.414c0-26.505 23.857-48.962 54.311-48.962h535.95c3.957 0 7.658 1.437 10.313 3.854l191.998 174.888c0 0 0 0.001 0.001 0.001 2.634 2.402 3.999 5.535 3.999 8.676v242.282c0 6.43-5.896 12.528-14.311 12.528s-14.311-6.098-14.311-12.528v-229.754h-137.689c-30.453 0-54.311-22.457-54.311-48.962v-125.928h-521.639c-13.658 0-25.689 10.231-25.689 23.906v823.414c0 13.675 12.031 23.906 25.689 23.906h177.689v-150.743c0-6.43 5.896-12.528 14.311-12.528h128c8.416 0 14.311 6.098 14.311 12.528v150.743h51.379v-255.263c0-6.431 5.896-12.529 14.311-12.529h128c8.415 0 14.311 6.098 14.311 12.529v255.263h51.377v-382.783c0-6.431 5.896-12.529 14.311-12.529h128c8.416 0 14.312 6.098 14.312 12.529v382.783h51.377v-274.848c0-6.43 5.896-12.528 14.311-12.528s14.311 6.098 14.311 12.528v274.848h99.378v-490.945h-93.689zM619.781 103.504l-9.52-8.671v107.351c0 13.674 12.029 23.906 25.689 23.906h118.412l-134.581-122.586zM360 947.482h5.689v-138.214h-99.378v138.214h93.689zM568 947.482h5.689v-242.735h-99.378v242.735h93.689zM776 947.482h5.689v-370.255h-99.377v370.255h93.688z"></path><path fill="rgb(0, 0, 0)" stroke="rgb(0, 0, 0)" stroke-linejoin="miter" stroke-linecap="butt" stroke-miterlimit="4" stroke-width="11.377777777777778" d="M886.31 592.259l-0.010-0.009c-2.61-2.389-6.376-3.846-10.299-3.846s-7.689 1.456-10.299 3.846l-0.010 0.009c-2.606 2.372-4.002 5.574-4.002 8.673s1.396 6.3 4 8.673l20.62-17.347zM886.31 592.259c2.604 2.372 4.002 5.574 4.002 8.673 0 3.1-1.397 6.301-4.002 8.674-2.623 2.388-6.398 3.854-10.309 3.854-3.911 0-7.686-1.465-10.309-3.854l20.619-17.348z"></path><path fill="rgb(0, 0, 0)" stroke="rgb(0, 0, 0)" stroke-linejoin="miter" stroke-linecap="butt" stroke-miterlimit="4" stroke-width="11.377777777777778" d="M271.715 201.86l5.129-0.506v-37.926c0-6.43 5.896-12.528 14.311-12.528 129.070 0 233.158 95.536 233.158 211.867 0 6.431-5.896 12.529-14.312 12.529h-41.027l-0.597 5.015c-9.609 80.625-85.038 144.319-177.221 144.319-98.799 0-178.261-73.106-178.261-161.864 0-82.86 69.199-152.045 158.821-160.907zM276.844 232.91v-6.458l-6.407 0.815c-72.322 9.199-128.92 66.079-128.92 135.499 0 75.928 67.634 136.806 149.638 136.806 75.039 0 137.944-50.908 148.188-117.727l1.005-6.551h-149.192c-8.415 0-14.311-6.098-14.311-12.528v-129.856zM305.467 344.55v5.689h189.886l-0.695-6.311c-9.739-88.394-86.96-158.26-182.984-167.038l-6.207-0.568v168.228z"></path><path fill="rgb(0, 0, 0)" stroke="rgb(0, 0, 0)" stroke-linejoin="miter" stroke-linecap="butt" stroke-miterlimit="4" stroke-width="11.377777777777778" d="M128 587.239h382c8.415 0 14.311 6.098 14.311 12.528s-5.896 12.528-14.311 12.528h-382c-8.415 0-14.311-6.098-14.311-12.528s5.896-12.528 14.311-12.528z"></path><path fill="rgb(0, 0, 0)" stroke="rgb(0, 0, 0)" stroke-linejoin="miter" stroke-linecap="butt" stroke-miterlimit="4" stroke-width="11.377777777777778" d="M128 675.136h128c8.415 0 14.311 6.098 14.311 12.528 0 6.431-5.896 12.529-14.311 12.529h-128c-8.415 0-14.311-6.098-14.311-12.529 0-6.43 5.896-12.528 14.311-12.528z"></path><path fill="rgb(0, 0, 0)" stroke="rgb(0, 0, 0)" stroke-linejoin="miter" stroke-linecap="butt" stroke-miterlimit="4" stroke-width="11.377777777777778" d="M345.841 679.001v0l0.011-0.011c2.624-2.39 6.378-3.854 10.308-3.854 3.912 0 7.687 1.467 10.309 3.855 2.606 2.373 4.002 5.574 4.002 8.673 0 3.1-1.396 6.301-4 8.671l-0.002 0.002c-2.623 2.389-6.397 3.856-10.308 3.856-3.928 0-7.683-1.465-10.309-3.857l-0.011-0.011c-2.603-2.356-3.99-5.547-3.99-8.661 0-3.112 1.387-6.303 3.991-8.663zM370.301 700.542c3.719-3.387 5.86-8.087 5.86-12.879 0-4.79-2.14-9.49-5.86-12.879-3.721-3.388-8.88-5.338-14.14-5.338-5.279 0-10.42 1.948-14.14 5.338l28.281 25.757z"></path></g>
</svg>
 