<?xml version="1.0" encoding="utf-8"?>
<!-- Generator: Adobe Illustrator 17.0.0, SVG Export Plug-In . SVG Version: 6.00 Build 0)  -->
<!DOCTYPE svg PUBLIC "-//W3C//DTD SVG 1.1//EN" "http://www.w3.org/Graphics/SVG/1.1/DTD/svg11.dtd">
<svg version="1.1" id="Layer_1" xmlns="http://www.w3.org/2000/svg" xmlns:xlink="http://www.w3.org/1999/xlink" x="0px" y="0px"
	 width="1025px" height="1024px" viewBox="0 0 1025 1024" enable-background="new 0 0 1025 1024" xml:space="preserve">
<g><path d="M720.643 743.865c-1.134-13.576-12.978-24.363-27.882-25.398-16.671 1.157-29.153 14.403-27.884 29.586 1.134 13.574 12.978 24.362 27.884 25.397 16.669-1.154 29.151-14.403 27.882-29.584z"></path><path d="M794.484 720.277c-1.134-13.574-12.978-24.362-27.884-25.398-16.669 1.157-29.151 14.403-27.882 29.586 1.134 13.574 12.977 24.362 27.882 25.398 16.671-1.156 29.153-14.404 27.884-29.586z"></path><path d="M1016.104 300.909v-1.274c-0.382-0.887-0.85-1.739-1.399-2.551l-1.050-1.275-2.099-2.071-1.224-0.956-2.275-0.957h-0.875l-380.033-141.522c-4.208-1.55-8.915-1.55-13.123 0l-383.533 141.044-2.099 2.073-1.050 1.274c-0.549 0.811-1.016 1.663-1.399 2.551v1.275c-0.183 1.322-0.183 2.661 0 3.984v127.497h-200.69c-9.663 0-17.497 7.135-17.497 15.937s7.834 15.937 17.497 15.937v2.071h198.59v54.506h-68.063c-9.663 0-17.497 7.135-17.497 15.937 0 8.8 7.834 15.937 17.497 15.937h68.063v54.505h-161.322c-9.663 0-17.497 7.135-17.497 15.937s7.834 15.937 17.497 15.937h161.322v66.617c0.034 6.436 4.315 12.218 10.848 14.662l379.333 143.436c1.896 0.684 3.91 1.061 5.949 1.116 2.039-0.054 4.053-0.431 5.949-1.116l379.333-143.436c6.533-2.444 10.814-8.226 10.848-14.662v-398.431c0.185-1.322 0.185-2.661 0-3.984zM620.499 182.655l143.825 52.434-327.193 126.064-149.599-56.737 332.966-121.76zM602.478 823.012l-343.64-130.366v-56.1h72.612c9.663 0 17.496-7.135 17.496-15.937 0-8.8-7.834-15.937-17.496-15.937h-72.612v-54.505h166.222c9.663 0 17.496-7.135 17.496-15.937s-7.834-15.937-17.496-15.937h-166.222v-54.346h34.994c9.663 0 17.496-7.135 17.496-15.937 0-8.8-7.834-15.937-17.496-15.937h-34.994v-103.91l133.677 50.361 209.963 79.686v364.803zM620.674 431.276l-138.226-52.753 327.543-126.542 143.299 52.593-332.617 126.701zM637.997 823.012v-364.803l343.464-130.366 0.875 364.803-344.339 130.366z"></path></g>
</svg>
