<?xml version="1.0" encoding="utf-8"?>
<!-- Generator: Adobe Illustrator 17.0.0, SVG Export Plug-In . SVG Version: 6.00 Build 0)  -->
<!DOCTYPE svg PUBLIC "-//W3C//DTD SVG 1.1//EN" "http://www.w3.org/Graphics/SVG/1.1/DTD/svg11.dtd">
<svg version="1.1" id="Layer_1" xmlns="http://www.w3.org/2000/svg" xmlns:xlink="http://www.w3.org/1999/xlink" x="0px" y="0px"
	 width="1025px" height="1024px" viewBox="0 0 1025 1024" enable-background="new 0 0 1025 1024" xml:space="preserve">
<g><path stroke-linejoin="miter" stroke-linecap="butt" stroke-miterlimit="4" stroke-width="11.377777777777778" d="M506.311 848.199v18.715h-423.725c-42.951-0.053-76.842-31.642-76.897-69.54v-661.92c0.055-37.898 33.945-69.485 76.893-69.533h726.704c42.962 0.048 76.852 31.638 76.901 69.536v340.309h-21.661v-340.317c0-28.562-25.231-50.82-55.238-50.82h-726.71c-29.993 0-55.237 22.258-55.237 50.82v661.928c0 28.555 25.243 50.821 55.237 50.821h423.732z"></path><path stroke-linejoin="miter" stroke-linecap="butt" stroke-miterlimit="4" stroke-width="11.377777777777778" d="M71.761 126.101h21.649v18.705h-21.649v-18.705z"></path><path stroke-linejoin="miter" stroke-linecap="butt" stroke-miterlimit="4" stroke-width="11.377777777777778" d="M137.811 126.101h21.661v18.705h-21.661v-18.705z"></path><path stroke-linejoin="miter" stroke-linecap="butt" stroke-miterlimit="4" stroke-width="11.377777777777778" d="M203.883 126.101h21.658v18.705h-21.658v-18.705z"></path><path stroke-linejoin="miter" stroke-linecap="butt" stroke-miterlimit="4" stroke-width="11.377777777777778" d="M71.761 186.269h748.359v18.716h-748.359v-18.716z"></path><path stroke-linejoin="miter" stroke-linecap="butt" stroke-miterlimit="4" stroke-width="11.377777777777778" d="M191.184 288.249l3.632 2.19 41.257-37.579 14.901 13.578-41.098 37.437 2.996 4.121c21.561 29.652 15.096 69.416-15.453 92.153v0c-30.781 22.909-75.724 20.813-103.75-4.724l-0.001-0.001c-27.797-25.317-29.96-65.44-5.172-93.072 25.016-27.886 69.47-34.134 102.688-14.104zM148.664 295.249h-0.017c-29.99 0-55.234 22.257-55.234 50.817 0 28.554 25.244 50.815 55.234 50.815 30.005 0 55.24-22.262 55.24-50.815v-0.022c-0.028-7.66-1.963-15.177-5.629-22l-3.449-6.419-34.483 31.37-14.904-13.581 34.716-31.626-7.95-3.541c-7.348-3.273-15.38-4.973-23.526-4.998z"></path><path stroke-linejoin="miter" stroke-linecap="butt" stroke-miterlimit="4" stroke-width="11.377777777777778" d="M286.466 306.628h269.391v18.705h-269.391v-18.705z"></path><path stroke-linejoin="miter" stroke-linecap="butt" stroke-miterlimit="4" stroke-width="11.377777777777778" d="M286.466 366.8h104.233v18.705h-104.233v-18.705z"></path><path stroke-linejoin="miter" stroke-linecap="butt" stroke-miterlimit="4" stroke-width="11.377777777777778" d="M435.111 366.8h219.841v18.705h-219.841v-18.705z"></path><path stroke-linejoin="miter" stroke-linecap="butt" stroke-miterlimit="4" stroke-width="11.377777777777778" d="M600.267 306.628h153.784v18.705h-153.784v-18.705z"></path><path stroke-linejoin="miter" stroke-linecap="butt" stroke-miterlimit="4" stroke-width="11.377777777777778" d="M88.496 482.879c25.016-27.886 69.47-34.136 102.688-14.105l3.632 2.191 41.257-37.579 14.901 13.577-41.098 37.437 2.995 4.121c21.562 29.663 15.097 69.412-15.452 92.153-30.781 22.91-75.724 20.815-103.75-4.717-27.798-25.324-29.961-65.444-5.173-93.079zM88.496 482.879v0zM148.667 475.766h-0.019c-29.991 0-55.234 22.266-55.234 50.823 0 28.555 25.243 50.82 55.234 50.82 30.007 0 55.24-22.265 55.24-50.82v-0.020c-0.028-7.661-1.963-15.178-5.627-22.002l-3.449-6.423-34.485 31.374-14.903-13.574 34.715-31.632-7.949-3.541c-7.347-3.272-15.377-4.977-23.524-5.005z"></path><path stroke-linejoin="miter" stroke-linecap="butt" stroke-miterlimit="4" stroke-width="11.377777777777778" d="M286.466 487.144h269.391v18.713h-269.391v-18.713z"></path><path stroke-linejoin="miter" stroke-linecap="butt" stroke-miterlimit="4" stroke-width="11.377777777777778" d="M286.466 547.325h104.233v18.71h-104.233v-18.71z"></path><path stroke-linejoin="miter" stroke-linecap="butt" stroke-miterlimit="4" stroke-width="11.377777777777778" d="M435.111 547.325h120.746v18.71h-120.746v-18.71z"></path><path stroke-linejoin="miter" stroke-linecap="butt" stroke-miterlimit="4" stroke-width="11.377777777777778" d="M600.267 487.144h54.684v18.713h-54.684v-18.713z"></path><path stroke-linejoin="miter" stroke-linecap="butt" stroke-miterlimit="4" stroke-width="11.377777777777778" d="M88.496 663.405c25.016-27.886 69.47-34.136 102.688-14.105l3.632 2.191 41.257-37.58 14.901 13.578-41.098 37.434 2.995 4.12c21.562 29.664 15.097 69.417-15.453 92.159-30.781 22.906-75.724 20.817-103.749-4.717l-0-0.001c-27.798-25.324-29.961-65.444-5.173-93.079zM88.496 663.405v0zM148.664 656.296h-0.017c-29.991 0-55.234 22.262-55.234 50.82 0 28.555 25.243 50.82 55.234 50.82 30.007 0 55.24-22.265 55.24-50.82v-0.020c-0.028-7.656-1.963-15.178-5.627-22.002l-3.449-6.423-34.485 31.374-14.903-13.574 34.711-31.629-7.943-3.543c-7.349-3.278-15.383-4.978-23.528-5.003z"></path><path stroke-linejoin="miter" stroke-linecap="butt" stroke-miterlimit="4" stroke-width="11.377777777777778" d="M286.466 667.674h203.329v18.715h-203.329v-18.715z"></path><path stroke-linejoin="miter" stroke-linecap="butt" stroke-miterlimit="4" stroke-width="11.377777777777778" d="M286.466 727.85h104.233v18.708h-104.233v-18.708z"></path><path stroke-linejoin="miter" stroke-linecap="butt" stroke-miterlimit="4" stroke-width="11.377777777777778" d="M435.111 727.85h54.684v18.708h-54.684v-18.708z"></path><path stroke-linejoin="miter" stroke-linecap="butt" stroke-miterlimit="4" stroke-width="11.377777777777778" d="M776.261 535.948h-0.006c-121.16 0.124-220.256 89.671-220.401 201.252v0.007c0 111.642 99.191 201.256 220.407 201.256 121.204 0 220.4-89.614 220.4-201.256 0-111.641-99.196-201.259-220.4-201.259zM1018.31 737.207c0 120.99-107.845 219.969-242.042 219.972-134.136-0.148-241.904-99.036-242.062-219.976 0.002-121 107.858-219.968 242.055-219.968 134.2 0 242.049 98.968 242.049 219.971z"></path><path stroke-linejoin="miter" stroke-linecap="butt" stroke-miterlimit="4" stroke-width="11.377777777777778" d="M683.972 816.406l-30.083-54.8 19.17-8.719 23.621 43.221 183.519-167.151 14.901 13.578-193.563 176.315c-0.001 0.001-0.002 0.002-0.003 0.003-2.002 1.817-4.807 2.917-7.817 2.926-0.603-0.009-1.197-0.055-1.786-0.138-3.626-0.539-6.518-2.601-7.955-5.229l-0.005-0.007z"></path></g>
</svg>
