<?xml version="1.0" encoding="utf-8"?>
<!-- Generator: Adobe Illustrator 17.0.0, SVG Export Plug-In . SVG Version: 6.00 Build 0)  -->
<!DOCTYPE svg PUBLIC "-//W3C//DTD SVG 1.1//EN" "http://www.w3.org/Graphics/SVG/1.1/DTD/svg11.dtd">
<svg version="1.1" id="Layer_1" xmlns="http://www.w3.org/2000/svg" xmlns:xlink="http://www.w3.org/1999/xlink" x="0px" y="0px"
	 width="1025px" height="1024px" viewBox="0 0 1025 1024" enable-background="new 0 0 1025 1024" xml:space="preserve">
<g><path d="M482.908 781.223l-118.292-24.569c-5.454-1.133-9.41-6.001-9.41-11.564v-13.175c24.797-21.886 40.48-53.874 40.48-89.47v-45.73h29.602c11.046 0 20-8.956 20-19.999s-8.954-20-20-20h-33.584v-68.592c0-31.034-25.248-56.28-56.28-56.28h-0.714c-15.032 0-29.164 5.854-39.794 16.48 0 0.002-0.002 0.002-0.002 0.002-5.060 5.060-11.788 7.848-18.944 7.848s-13.884-2.788-18.946-7.848c-10.63-10.628-24.762-16.482-39.794-16.482-31.034 0-56.28 25.246-56.28 56.28v68.592h-34.236c-11.046 0-20 8.956-20 20s8.955 19.999 20 19.999h30.252v45.73c0 35.596 15.682 67.583 40.48 89.47v13.155c0 5.577-3.96 10.438-9.418 11.571l-118.882 24.617c-40.066 8.294-69.146 44.012-69.146 84.924v137.817c0 11.046 8.954 20.002 20 20.002h512c11.046 0 20-8.957 20-20.002v-137.851c0-40.892-29.058-76.602-69.092-84.924zM83.136 984.003h-43.136v-117.821c0-22.043 15.668-41.288 37.256-45.759l5.88-1.222v164.803zM200.948 488.122c0-8.976 7.305-16.28 16.28-16.28 4.35 0 8.438 1.694 11.512 4.768 12.616 12.616 29.388 19.562 47.228 19.562s34.612-6.948 47.226-19.56c3.078-3.076 7.166-4.77 11.514-4.77h0.714c8.976 0 16.28 7.302 16.28 16.28v68.592h-150.754v-68.592zM196.964 642.443v-45.73h158.72v45.73c0 43.76-35.6 79.361-79.36 79.361s-79.36-35.601-79.36-79.361zM195.878 795.86l0.258-0.055c20.646-4.273 36.38-20.739 40.322-40.871 12.476 4.431 25.888 6.868 39.866 6.868 13.976 0 27.391-2.43 39.864-6.868 3.868 19.77 19.122 35.983 39.216 40.612v56.682c0 11.284-9.184 20.473-20.474 20.473h-118.578c-11.29 0-20.474-9.189-20.474-20.473v-56.368zM428.15 984.003h-305.014v-173.083l32.744-6.779v48.080c0 33.348 27.128 60.477 60.474 60.477h118.578c33.346 0 60.474-27.129 60.474-60.477v-48.319l32.744 6.806v173.295zM512 984.003h-43.852v-164.987l6.626 1.372c21.57 4.485 37.226 23.723 37.226 45.759v117.856z"></path><path d="M954.907 349.386l-118.292-24.574c-5.455-1.132-9.407-5.996-9.407-11.564v-13.173c24.794-21.888 40.475-53.874 40.475-89.47v-45.73h29.607c11.046 0 19.995-8.956 19.995-20s-8.95-20-19.995-20h-33.587v-68.594c0-31.034-25.245-56.28-56.279-56.28h-0.717c-15.032 0-29.164 5.854-39.793 16.484-10.445 10.444-27.443 10.446-37.888 0.002-10.629-10.63-24.767-16.486-39.799-16.486-31.033 0-56.279 25.246-56.279 56.28v68.594h-34.234c-11.046 0-19.999 8.956-19.999 20s8.954 20 19.999 20h30.252v45.73c0 35.596 15.682 67.582 40.48 89.47v13.158c0 5.572-3.96 10.436-9.418 11.566l-118.88 24.616c-40.068 8.292-69.148 44.010-69.148 84.926v137.818c0 11.044 8.954 20 20 20h511.998c11.046 0 20.002-8.956 20.002-20v-137.854c0-40.888-29.061-76.6-69.093-84.918zM555.136 552.158h-43.136v-117.818c0-22.044 15.668-41.29 37.256-45.76l5.88-1.218v164.796zM689.227 40c4.349 0 8.438 1.694 11.51 4.77 26.044 26.040 68.417 26.040 94.461 0 3.072-3.076 7.161-4.77 11.51-4.77h0.717c8.977 0 16.275 7.302 16.275 16.28v68.594h-150.751v-68.594c0-8.976 7.304-16.28 16.279-16.28zM668.964 210.604v-45.73h158.721v45.73c0 43.76-35.601 79.36-79.36 79.36s-79.361-35.6-79.361-79.36zM667.878 364.020l0.256-0.052c20.649-4.276 36.385-20.746 40.324-40.876 12.479 4.434 25.887 6.872 39.868 6.872 13.974 0 27.389-2.436 39.861-6.87 3.871 19.768 19.121 35.98 39.219 40.61v56.68c0 11.29-9.189 20.474-20.473 20.474h-118.579c-11.291 0-20.475-9.186-20.475-20.474v-56.364zM900.151 552.156h-305.015v-173.076l32.744-6.78v48.082c0 33.346 27.128 60.474 60.473 60.474h118.579c33.348 0 60.471-27.128 60.471-60.474v-48.32l32.748 6.802v173.292zM984.003 552.158h-43.855v-164.984l6.629 1.376c21.565 4.48 37.226 23.722 37.226 45.754v117.854z"></path><path opacity="0.5" d="M662.286 918.344c-3.032-10.622-14.098-16.78-24.722-13.735-0.28 0.082-0.678 0.205-0.954 0.294-10.478 3.495-16.136 14.821-12.646 25.293 2.792 8.383 10.6 13.687 18.974 13.687 2.014 0 4.060-0.307 6.078-0.956 10.334-3.215 16.26-14.118 13.27-24.583z"></path><path opacity="0.5" d="M919.654 657.446c-10.22-4.192-21.9 0.688-26.098 10.906-36.468 88.848-103.363 162.637-188.348 207.768-9.755 5.181-13.462 17.292-8.281 27.040 3.591 6.772 10.52 10.629 17.681 10.629 3.161 0 6.376-0.751 9.366-2.342 93.211-49.507 166.577-130.444 206.589-227.901 4.192-10.223-0.689-21.907-10.909-26.101z"></path><path opacity="0.5" d="M512.254 60h-0.254c-11.046 0-20 8.956-20 20s8.954 19.999 20 19.999h0.254c11.046 0 20-8.956 20-19.999s-8.954-20-20-20z"></path><path opacity="0.5" d="M461.7 82.464c-1.786-10.9-12.063-18.276-22.968-16.508-104.586 17.118-200.378 71.090-269.732 151.972-70.118 81.774-108.734 186.21-108.734 294.074 0 11.044 8.954 20 20 20s20-8.956 20-20c0-202.874 145.064-373.86 344.928-406.57 10.899-1.787 18.292-12.068 16.506-22.968z"></path></g>
</svg>
