<?xml version="1.0" encoding="utf-8"?>
<!-- Generator: Adobe Illustrator 17.0.0, SVG Export Plug-In . SVG Version: 6.00 Build 0)  -->
<!DOCTYPE svg PUBLIC "-//W3C//DTD SVG 1.1//EN" "http://www.w3.org/Graphics/SVG/1.1/DTD/svg11.dtd">
<svg version="1.1" id="Layer_1" xmlns="http://www.w3.org/2000/svg" xmlns:xlink="http://www.w3.org/1999/xlink" x="0px" y="0px"
	 width="1025px" height="1024px" viewBox="0 0 1025 1024" enable-background="new 0 0 1025 1024" xml:space="preserve">
<g><path d="M998.321 220.266c-13.067-14.069-31.365-22.663-51.53-24.197l-710.184-54.013c-20.167-1.534-39.772 4.177-55.22 16.077-15.386 11.854-24.807 28.437-26.544 46.713l-14.288 122.101h-57.052c-41.765 0-75.744 30.95-75.744 68.991v404.935c0 38.042 33.979 68.993 75.744 68.993h712.66c41.767 0 75.747-30.951 75.747-68.993v-65.688l25.288 1.924c2.133 0.161 4.254 0.242 6.358 0.242 38.937 0 72.13-27.286 75.427-63.255l36.993-403.529c1.682-18.367-4.586-36.228-17.653-50.3zM83.502 362.828h712.66c20.042 0 36.352 14.853 36.352 33.109v36.898h-785.362v-36.898c0-18.257 16.307-33.109 36.351-33.109zM47.151 468.717h785.362v74.435h-785.362v-74.435zM796.162 833.983h-712.66c-20.044 0-36.351-14.854-36.351-33.111v-221.836h785.362v221.836c0 18.257-16.31 33.111-36.352 33.111zM976.716 267.579l-36.993 403.529c-1.668 18.193-19.279 31.766-39.249 30.241l-28.566-2.172v-303.239c0-38.042-33.98-68.991-75.747-68.991h-615.989l13.864-118.483c0.016-0.137 0.029-0.272 0.042-0.41 1.668-18.194 19.268-31.765 39.249-30.24l710.187 54.014c9.677 0.735 18.46 4.861 24.73 11.613 6.27 6.754 9.28 15.324 8.471 24.138z"></path><path fill="rgb(255, 255, 255)" d="M750.083 632.379h-189.567c-10.879 0-19.698 8.032-19.698 17.942v112.649c0 9.91 8.819 17.942 19.698 17.942h189.567c10.878 0 19.696-8.032 19.696-17.942v-112.649c0-9.91-8.819-17.942-19.696-17.942zM730.385 745.030h-150.173v-76.769h150.173v76.769z"></path></g>
</svg>
