<?xml version="1.0" encoding="utf-8"?>
<!-- Generator: Adobe Illustrator 17.0.0, SVG Export Plug-In . SVG Version: 6.00 Build 0)  -->
<!DOCTYPE svg PUBLIC "-//W3C//DTD SVG 1.1//EN" "http://www.w3.org/Graphics/SVG/1.1/DTD/svg11.dtd">
<svg version="1.1" id="Layer_1" xmlns="http://www.w3.org/2000/svg" xmlns:xlink="http://www.w3.org/1999/xlink" x="0px" y="0px"
	 width="1025px" height="1024px" viewBox="0 0 1025 1024" enable-background="new 0 0 1025 1024" xml:space="preserve">
<g><path stroke="rgb(0, 0, 0)" stroke-linejoin="miter" stroke-linecap="butt" stroke-miterlimit="4" stroke-width="11.377777777777778" d="M335.343 653.65v-5.689h-300.237c-16.725 0-29.417-12.287-29.417-26.289v-544.182c0-14.002 12.692-26.289 29.417-26.289h788.205c16.725 0 29.417 12.287 29.415 26.289v261.957c0 4.59-4.255 9.196-10.652 9.196-6.395 0-10.651-4.606-10.651-9.196v-261.956c0-4.801-4.185-7.9-8.113-7.9h-788.204c-3.924 0-8.114 3.096-8.114 7.9v544.182c0 4.801 4.185 7.9 8.114 7.9h517.201c6.395 0 10.651 4.606 10.651 9.196s-4.255 9.194-10.651 9.194h-29.235v101.267h29.235c6.395 0 10.651 4.605 10.651 9.194s-4.255 9.194-10.651 9.194h-348.3c-6.395 0-10.652-4.605-10.652-9.194s4.256-9.194 10.652-9.194h131.336v-95.578zM496.080 749.228h5.689v-101.267h-145.124v101.267h139.435z"></path><path fill="rgb(0, 0, 0)" stroke="rgb(0, 0, 0)" stroke-linejoin="miter" stroke-linecap="butt" stroke-miterlimit="4" stroke-width="11.377777777777778" d="M81.702 528.699h470.604c6.395 0 10.652 4.605 10.652 9.194s-4.256 9.194-10.652 9.194h-470.604c-6.396 0-10.652-4.605-10.652-9.194s4.256-9.194 10.652-9.194z"></path><path fill="rgb(0, 0, 0)" stroke="rgb(0, 0, 0)" stroke-linejoin="miter" stroke-linecap="butt" stroke-miterlimit="4" stroke-width="11.377777777777778" d="M1018.309 416.072v530.178c0 14.004-12.69 26.289-29.416 26.289h-352.46c-16.724 0-29.416-12.287-29.416-26.289v-530.177c0-14.003 12.69-26.289 29.416-26.289h352.461c16.726 0 29.417 12.286 29.415 26.288zM634.008 467.709h-5.689v367.369h368.689v-367.369h-363zM991.317 449.319h5.689v-33.246c0-4.8-4.185-7.9-8.113-7.9h-352.46c-3.92 0-8.113 3.090-8.113 7.9v33.246h362.998zM634.008 853.468h-5.689v92.781c0 4.8 4.185 7.9 8.113 7.9h352.461c3.924 0 8.115-3.096 8.115-7.9v-92.781h-363z"></path><path fill="rgb(0, 0, 0)" stroke="rgb(0, 0, 0)" stroke-linejoin="miter" stroke-linecap="butt" stroke-miterlimit="4" stroke-width="11.377777777777778" d="M779.985 894.614h65.361c6.397 0 10.652 4.605 10.652 9.194s-4.255 9.196-10.652 9.196h-65.361c-6.397 0-10.652-4.606-10.652-9.196s4.255-9.194 10.652-9.194z"></path></g>
</svg>
