<?xml version="1.0" encoding="utf-8"?>
<!-- Generator: Adobe Illustrator 17.0.0, SVG Export Plug-In . SVG Version: 6.00 Build 0)  -->
<!DOCTYPE svg PUBLIC "-//W3C//DTD SVG 1.1//EN" "http://www.w3.org/Graphics/SVG/1.1/DTD/svg11.dtd">
<svg version="1.1" id="Layer_1" xmlns="http://www.w3.org/2000/svg" xmlns:xlink="http://www.w3.org/1999/xlink" x="0px" y="0px"
	 width="1025px" height="1024px" viewBox="0 0 1025 1024" enable-background="new 0 0 1025 1024" xml:space="preserve">
<g><path fill="rgb(0,0,0)" d="M753.611 101.996c-99.758 0-192.712 119.75-239.797 306.517-73.516-18.642-153.062-28.89-229.97-28.89-88.023 0-162.133 29.664-214.305 85.765-46.125 49.625-71.539 116.14-71.539 187.274 0 126.727 83.953 263.095 268.313 263.095 2.649 0 5.28 0.148 7.89 0.297 3.236 0.164 6.455 0.336 9.641 0.336 103.828 0 212.518-18.625 304.572-51.494 48.305 37.586 108.977 57.416 170.243 57.416 39.827 0 79.843-8.298 116.719-25.305 92.781-42.829 145.992-131.391 145.992-242.924 0-2.649 0.148-5.274 0.297-7.883 0.164-3.243 0.336-6.46 0.336-9.641-0.024-252.844-110.235-534.563-268.392-534.563zM276.149 879.092c-3.258-0.179-6.554-0.352-9.836-0.352-158.907 0-231.298-117.195-231.298-226.079 0-61.766 21.899-119.328 61.633-162.063 44.992-48.382 109.72-73.96 187.196-73.96 79.181 0 156.986 10.788 226.727 29.21l11.641 3.234c18.765 5.219 36.688 10.977 53.789 17.126 3.070 1.109 6.086 2.258 9.102 3.398 3.93 1.485 7.798 2.985 11.626 4.5 4.663 1.874 9.327 3.719 13.882 5.664 0.297 0.131 0.594 0.258 0.906 0.389 58.429 25.008 105.595 55.789 135.282 89.376 1.055 1.203 2.164 2.406 3.18 3.632 1.976 2.345 3.828 4.719 5.647 7.101 1.533 2.039 3 4.094 4.4 6.149 1.335 1.922 2.703 3.867 3.907 5.813 2.459 3.977 4.741 7.977 6.702 11.991 0.5 1.017 0.852 2.033 1.312 3.055 1.516 3.345 2.891 6.695 4.031 10.063 0.485 1.406 0.891 2.836 1.321 4.243 0.922 3.133 1.679 6.258 2.273 9.407 0.258 1.312 0.539 2.608 0.742 3.922 0.649 4.366 1.070 8.733 1.070 13.1 0 3.907-0.288 7.813-0.812 11.735-0.179 1.43-0.539 2.836-0.797 4.258-0.445 2.446-0.891 4.883-1.516 7.351-0.485 1.867-1.133 3.719-1.719 5.571-0.633 1.922-1.242 3.843-1.985 5.789-0.867 2.219-1.852 4.446-2.867 6.649-0.664 1.461-1.352 2.906-2.070 4.367-1.336 2.609-2.765 5.195-4.297 7.789-0.539 0.889-1.077 1.773-1.632 2.664-1.939 3.086-3.961 6.163-6.195 9.218-0.094 0.109-0.188 0.218-0.259 0.352-28.227 38.368-79.515 73.656-144.852 101.743-0.625 0.273-1.234 0.546-1.867 0.812-3.429 1.461-6.984 2.852-10.476 4.273-3.977 1.609-7.962 3.227-12.071 4.774-86.711 33.188-194.094 54.031-304.111 54.031-2.546-0.039-5.125-0.164-7.711-0.297zM984.706 644.239c-0.179 3.258-0.352 6.555-0.352 9.829 0 96.5-45.358 172.797-124.508 209.328-74.196 34.227-163 27.805-230.431-14.585 110.829-47.602 188.955-117.547 188.955-200.813 0-5.649-0.461-11.203-1.164-16.712-0.079-0.616-0.227-1.225-0.314-1.835-13.257-93.539-125.476-168.525-267.602-211.111 42.126-167.813 123.156-279.328 204.283-279.328 118.914 0 231.359 241.782 231.359 497.532 0.039 2.548-0.118 5.125-0.227 7.695z"></path><path fill="rgb(0,0,0)" d="M159.929 484.878c-48.844 34.437-78.586 90.211-81.618 153.008-0.484 10.218 7.383 18.898 17.602 19.374 0.289 0.024 0.594 0.024 0.906 0.024 9.812 0 17.992-7.719 18.469-17.625 2.484-51.306 26.523-96.703 65.97-124.524 8.342-5.883 10.359-17.43 4.453-25.798-5.898-8.351-17.438-10.327-25.782-4.46z"></path><path fill="rgb(0,0,0)" d="M288.128 447.292c-23.695 0-46.235 2.961-67.009 8.805-9.842 2.758-15.577 12.993-12.803 22.82 2.295 8.165 9.718 13.493 17.804 13.493 1.664 0 3.367-0.218 5.016-0.679 17.509-4.946 36.688-7.422 56.992-7.422 10.235 0 18.507-8.274 18.507-18.509-0.007-10.242-8.281-18.507-18.507-18.507z"></path><path fill="rgb(0,0,0)" d="M834.504 297.24c17.007 25.672 30.524 55.156 40.165 87.632 2.389 8.055 9.757 13.257 17.749 13.257 1.743 0 3.5-0.242 5.258-0.758 9.789-2.906 15.398-13.218 12.491-23.008-10.679-36.023-25.781-68.852-44.827-97.579-5.664-8.515-17.118-10.89-25.648-5.187-8.501 5.632-10.837 17.109-5.188 25.641z"></path><path fill="rgb(0,0,0)" d="M750.556 177.108c-9.586-3.389-20.116 1.603-23.562 11.172-3.461 9.61 1.516 20.197 11.102 23.68 0.227 0.087 22.508 8.399 49.719 31.852 3.5 3.016 7.813 4.5 12.087 4.5 5.187 0 10.366-2.164 14.007-6.422 6.688-7.757 5.813-19.437-1.922-26.102-32.874-28.336-60.266-38.257-61.43-38.68z"></path></g>
</svg>
