<?xml version="1.0" encoding="utf-8"?>
<!-- Generator: Adobe Illustrator 17.0.0, SVG Export Plug-In . SVG Version: 6.00 Build 0)  -->
<!DOCTYPE svg PUBLIC "-//W3C//DTD SVG 1.1//EN" "http://www.w3.org/Graphics/SVG/1.1/DTD/svg11.dtd">
<svg version="1.1" id="Layer_1" xmlns="http://www.w3.org/2000/svg" xmlns:xlink="http://www.w3.org/1999/xlink" x="0px" y="0px"
	 width="1025px" height="1024px" viewBox="0 0 1025 1024" enable-background="new 0 0 1025 1024" xml:space="preserve">
<g><path fill="rgb(0,0,0)" d="M197.642 695.204c-25.235-25.172-66.227-25.172-91.415 0-12.195 12.196-18.945 28.445-18.945 45.727 0 17.266 6.75 33.516 18.945 45.711 12.61 12.609 29.156 18.898 45.703 18.898 16.555 0 33.11-6.289 45.712-18.898 12.194-12.196 18.946-28.445 18.946-45.711 0-17.282-6.728-33.509-18.946-45.727zM167.173 756.164c-8.43 8.431-22.047 8.431-30.469 0-4.055-4.070-6.32-9.475-6.32-15.234 0-5.774 2.242-11.163 6.32-15.234 4.203-4.212 9.719-6.298 15.234-6.298s11.031 2.094 15.234 6.298v0.022c4.077 4.048 6.313 9.438 6.313 15.212 0 5.734-2.243 11.141-6.313 15.234z"></path><path fill="rgb(0,0,0)" d="M1021.334 294.938c-3.258-15.836-13.814-29.157-28.211-35.507-9.719-4.337-13.336-14.251-18.188-30.039-4.937-16.212-13.921-46.165-47.843-43.283-11.486 1.142-21.571-2.132-28.469-8.999-6.876-6.875-10.086-17.008-9.008-28.469 2.265-24.484-5.344-46.836-21.461-62.977-15.212-15.187-36.007-22.539-59.953-21.719-0.282-1.359-0.561-2.867-0.797-4.141-3.086-16.297-9.438-49.867-56.289-56.187-8.272-2.625-30.967-8.102-49.804 3.453-8.984 5.539-20.173 16.852-22.525 41.523l-0.492 134.977h-220.032c-34.265 0-67.499 4.156-99.608 11.421-11.508-43.367-30.563-84.39-57.759-121.937l-10.687-14.758-16.336 8.055c-4.094 2.031-100.617 50.711-127.235 134.438-10.774 33.852-8.734 68.273 6.008 102.577-89.883 82.712-146.649 200.914-146.649 332.399v388.234h385.243c121.609 0 235.914-47.351 321.898-133.359 10.431-10.429 20.258-21.328 29.548-32.555 9.484 0.773 19.313 1.328 29.875 1.328 60.79 0 138.093-14.906 214.922-70.577l14.758-10.687-8.102-16.336c-2.476-5.024-57.883-114.196-152.259-131.564 2.719-20.258 4.618-40.711 4.594-61.484v-218.742l136.132 1.273 1.727-0.282c9.805-1.507 18.601-6.187 25.499-13.554l0.063-0.063c10.336-11.163 14.609-27.046 11.438-42.46zM187.583 273.782c-6.234-20.234-6.164-39.977 0.109-59.759 15.251-48.21 63.657-83.796 89.242-99.757 18.509 28.836 32.126 59.649 40.704 91.953-19.476 6.407-38.228 14.29-56.462 23.173-4.413 2.132-8.921 4.116-13.249 6.398-6.040 3.195-11.837 6.702-17.719 10.132-6.009 3.516-11.977 7.047-17.821 10.836-5.304 3.453-10.453 7.047-15.578 10.711-3.062 2.149-6.25 4.070-9.226 6.313zM834.294 672.461c54.328 10.156 94.657 64.696 111.915 92.39-62.194 40.047-123.727 51.337-173.030 51.446 28.030-43.078 48.116-90.445 60.124-140.32 0.305-1.188 0.719-2.328 0.992-3.516zM978.302 308.156l-174.93-1.601v262.234c0 24.929-2.5 49.452-6.789 73.484l-0.561 3.040c-1.227 6.508-2.712 12.993-4.267 19.437-0.664 2.782-1.352 5.54-2.062 8.298-14.165 53.92-39.352 105.085-73.969 149.304l-8.337 10.648c-7.844 9.353-15.968 18.492-24.695 27.211-77.843 77.844-181.35 120.735-291.429 120.735h-342.165v-345.156c0-125.187 56.656-237.274 145.508-312.407 33.688-28.445 71.079-50.985 111.681-67.171 0.319-0.126 0.64-0.212 0.944-0.336 13.384-5.304 27.11-9.914 41.165-13.821 35.016-9.781 71.765-15.43 109.884-15.43h262.96l0.563-175.836c0.452-4.61 1.594-6.719 2.109-7.023 2.133-1.336 9.593-0.797 14.594 1.031l5.383 1.336c17.461 1.937 18.406 6.898 21.164 21.68 2.243 11.664 8.148 42.563 44.157 39.313 11.445-1.078 21.569 2.133 28.491 9.008 6.876 6.891 10.086 17.023 9.008 28.484-2.265 24.484 5.344 46.837 21.461 62.953 15.648 15.625 37.344 23.141 61.157 21.618 1.446 3.125 3.171 8.742 4.422 12.781 5.367 17.577 13.491 44.172 41.875 56.827 2.046 0.899 3.149 3.103 3.492 4.844 0.196 0.891 0.454 3.087-0.843 4.485l0.031 0.031zM981.233 311.444v-0.601l12.86 11.921-12.86-11.32z"></path><path fill="rgb(0,0,0)" d="M151.935 536.497v43.11c166.375 0 301.712 135.335 301.712 301.703h43.1c0-190.118-154.687-344.813-344.812-344.813z"></path><path fill="rgb(0,0,0)" d="M222.082 466.372v43.102c166.376 0 301.711 135.344 301.711 301.711h43.102c0-190.14-154.687-344.813-344.813-344.813z"></path><path fill="rgb(0,0,0)" d="M289.084 399.357v43.102c166.374 0 301.711 135.335 301.711 301.711h43.102c0-190.126-154.665-344.813-344.813-344.813z"></path><path fill="rgb(0,0,0)" d="M359.229 329.211v43.102c166.376 0 301.711 135.335 301.711 301.71h43.102c0-190.124-154.672-344.812-344.813-344.812z"></path></g>
</svg>
