<?xml version="1.0" encoding="utf-8"?>
<!-- Generator: Adobe Illustrator 17.0.0, SVG Export Plug-In . SVG Version: 6.00 Build 0)  -->
<!DOCTYPE svg PUBLIC "-//W3C//DTD SVG 1.1//EN" "http://www.w3.org/Graphics/SVG/1.1/DTD/svg11.dtd">
<svg version="1.1" id="Layer_1" xmlns="http://www.w3.org/2000/svg" xmlns:xlink="http://www.w3.org/1999/xlink" x="0px" y="0px"
	 width="1025px" height="1024px" viewBox="0 0 1025 1024" enable-background="new 0 0 1025 1024" xml:space="preserve">
<g><path d="M201.521 1023.908c106.376-5.105 210.788-26.455 310.499-63.391 99.702 36.936 204.088 58.286 310.42 63.391 38.426 1.828 72.351-24.724 80.906-62.858 18.048-80.517 39.736-216.873 46.454-358.129 0.522-11.034-7.997-20.403-19.031-20.925-11.018-0.517-20.398 7.997-20.925 19.026-6.595 138.696-27.843 272.399-45.527 351.273-4.321 19.246-21.069 32.543-39.967 31.662-87.173-4.188-172.984-19.738-255.816-46.239 33.475-14.684 53.478-25.431 72.417-34.734 9.882-4.936 13.891-16.947 8.955-26.829s-16.947-13.891-26.829-8.955c-124.776 59.597-240.534 107.976-423.473 116.751-18.766 0.906-35.564-12.396-39.867-31.616-7.968-35.533-47.713-223.739-47.713-440.339 0-216.617 39.729-404.778 47.693-440.293 4.32-19.25 21.094-32.553 39.966-31.663 87.175 4.186 172.989 19.739 255.818 46.237-33.475 14.686-53.479 25.432-72.419 34.736-9.88 4.938-13.887 16.95-8.952 26.83 4.934 9.88 16.942 13.89 26.83 8.954 124.772-59.597 240.53-107.974 423.473-116.752 18.755-0.936 35.558 12.394 39.864 31.62 17.695 78.899 38.953 212.621 45.548 351.314 0.507 10.71 9.349 19.050 19.958 19.050 0.323 0 0.645-0.006 0.968-0.022 11.034-0.524 19.548-9.894 19.026-20.928-6.717-141.25-28.406-277.631-46.464-358.16-8.566-38.237-42.532-64.665-80.814-62.827-106.378 5.104-210.79 26.456-310.497 63.389-99.707-36.933-204.093-58.283-310.424-63.389-38.23-1.814-72.323 24.602-80.909 62.861-8.126 36.241-48.663 228.216-48.663 449.049 0 220.82 40.553 412.836 48.681 449.085 8.564 38.241 42.57 64.671 80.815 62.822z"></path><path d="M771.994 512.005c0-11.047-8.96-20.001-20.004-20.001h-71.711l25.856-25.858c7.813-7.81 7.813-20.473 0-28.285-7.808-7.81-20.47-7.81-28.283 0l-54.144 54.141h-34.243c-7.255-28.071-29.399-50.215-57.467-57.467v-34.246l54.139-54.141c7.813-7.81 7.813-20.474 0-28.285-7.813-7.81-20.47-7.81-28.283 0l-25.861 25.858v-71.715c0-11.046-8.955-20-19.998-20-11.044 0-20 8.954-20 20v71.715l-25.858-25.858c-7.812-7.81-20.472-7.81-28.285 0-7.81 7.81-7.81 20.473 0 28.285l54.141 54.141v34.246c-28.069 7.252-50.215 29.398-57.467 57.467h-34.246l-54.141-54.141c-7.812-7.81-20.472-7.81-28.285 0-7.81 7.81-7.81 20.474 0 28.285l25.858 25.858h-71.713c-11.044 0-19.999 8.954-19.999 20.001 0 11.044 8.955 19.999 19.999 19.999h71.713l-25.858 25.856c-7.81 7.813-7.81 20.475 0 28.288 7.812 7.808 20.471 7.808 28.285 0l54.141-54.144h34.246c7.252 28.073 29.398 50.217 57.467 57.467v34.248l-54.141 54.139c-7.81 7.813-7.81 20.475 0 28.288 7.812 7.808 20.472 7.808 28.285 0l25.858-25.856v71.711c0 11.049 8.956 20.004 20 20.004 11.043 0 19.998-8.955 19.998-20.004v-71.711l25.861 25.856c7.808 7.808 20.47 7.808 28.283 0s7.813-20.475 0-28.288l-54.139-54.139v-34.248c28.068-7.25 50.212-29.394 57.467-57.467h34.243l54.144 54.144c7.813 7.808 20.47 7.808 28.283 0 7.813-7.813 7.813-20.475 0-28.288l-25.856-25.856h71.711c11.044 0 20.004-8.955 20.004-19.999zM511.996 552.003c-22.055 0-39.999-17.94-39.999-39.997s17.944-40.001 39.999-40.001c22.056 0 40.002 17.944 40.002 40.001s-17.946 39.997-40.002 39.997z"></path><path d="M931.999 531.999c11.049 0 20.004-8.955 20.004-19.999 0-11.046-8.955-20-20.004-20-11.044 0-19.999 8.954-19.999 20 0 11.044 8.955 19.999 19.999 19.999z"></path></g>
</svg>
