<?xml version="1.0" encoding="utf-8"?>
<!-- Generator: Adobe Illustrator 17.0.0, SVG Export Plug-In . SVG Version: 6.00 Build 0)  -->
<!DOCTYPE svg PUBLIC "-//W3C//DTD SVG 1.1//EN" "http://www.w3.org/Graphics/SVG/1.1/DTD/svg11.dtd">
<svg version="1.1" id="Layer_1" xmlns="http://www.w3.org/2000/svg" xmlns:xlink="http://www.w3.org/1999/xlink" x="0px" y="0px"
	 width="1025px" height="1024px" viewBox="0 0 1025 1024" enable-background="new 0 0 1025 1024" xml:space="preserve">
<g><path fill="rgb(0, 0, 0)" d="M576 405.333c0 35.346-28.654 64-64 64s-64-28.654-64-64c0-35.346 28.654-64 64-64s64 28.654 64 64z"></path><path fill="rgb(0, 0,0)" d="M170.667 423.253c1.872-187.179 154.145-337.929 341.333-337.92 187.187-0.009 339.46 150.741 341.333 337.92 0 233.813-298.667 494.080-313.6 505.173-15.966 13.658-39.501 13.658-55.467 0l-0.068-0.060c-13.781-11.942-313.532-271.71-313.532-505.114zM362.667 405.333c0 82.475 66.859 149.333 149.333 149.333 39.607 0 77.589-15.731 105.596-43.738s43.738-65.988 43.738-105.596c0-82.475-66.859-149.333-149.333-149.333s-149.333 66.859-149.333 149.333z"></path></g>
</svg>
