<?xml version="1.0" encoding="utf-8"?>
<!-- Generator: Adobe Illustrator 17.0.0, SVG Export Plug-In . SVG Version: 6.00 Build 0)  -->
<!DOCTYPE svg PUBLIC "-//W3C//DTD SVG 1.1//EN" "http://www.w3.org/Graphics/SVG/1.1/DTD/svg11.dtd">
<svg version="1.1" id="Layer_1" xmlns="http://www.w3.org/2000/svg" xmlns:xlink="http://www.w3.org/1999/xlink" x="0px" y="0px"
	 width="1025px" height="1024px" viewBox="0 0 1025 1024" enable-background="new 0 0 1025 1024" xml:space="preserve">
<g><path d="M213.334 511.996c0 23.564-19.103 42.667-42.667 42.667s-42.667-19.103-42.667-42.667c0-23.564 19.103-42.667 42.667-42.667s42.667 19.103 42.667 42.667z"></path><path d="M333.038 469.332h528.578c18.986 0 34.377 15.391 34.377 34.377v16.579c0 18.986-15.391 34.377-34.377 34.377h-528.578c-18.986 0-34.377-15.391-34.377-34.377v-16.579c0-18.986 15.391-34.377 34.377-34.377z"></path><path d="M162.377 682.668h699.246c18.986 0 34.377 15.391 34.377 34.377v16.579c0 18.986-15.391 34.377-34.377 34.377h-699.246c-18.986 0-34.377-15.391-34.377-34.377v-16.579c0-18.986 15.391-34.377 34.377-34.377z"></path><path d="M162.377 256h699.246c18.986 0 34.377 15.391 34.377 34.377v16.579c0 18.986-15.391 34.377-34.377 34.377h-699.246c-18.986 0-34.377-15.391-34.377-34.377v-16.579c0-18.986 15.391-34.377 34.377-34.377z"></path></g>
</svg>
