<?xml version="1.0" encoding="utf-8"?>
<!-- Generator: Adobe Illustrator 17.0.0, SVG Export Plug-In . SVG Version: 6.00 Build 0)  -->
<!DOCTYPE svg PUBLIC "-//W3C//DTD SVG 1.1//EN" "http://www.w3.org/Graphics/SVG/1.1/DTD/svg11.dtd">
<svg version="1.1" id="Layer_1" xmlns="http://www.w3.org/2000/svg" xmlns:xlink="http://www.w3.org/1999/xlink" x="0px" y="0px"
	 width="1025px" height="1024px" viewBox="0 0 1025 1024" enable-background="new 0 0 1025 1024" xml:space="preserve">
<g><path fill="rgb(0,0,0)" d="M81.88 299.019h227.314c11.446 0 21.091-7.064 24.022-16.649h563.811c5.497 0 10.539-2.78 13.092-7.216l55.229-96.13c2.245-3.908 2.245-8.567 0-12.476l-55.229-96.182c-2.548-4.439-7.592-7.22-13.092-7.22h-245.251c-8.159 0-14.772 6.025-14.772 13.456s6.613 13.456 14.772 13.456h236.31l47.501 82.725-47.5 82.676h-553.936v-165.402h248.529c8.161 0 14.774-6.025 14.774-13.456s-6.613-13.456-14.774-13.456h-249.467c-2.937-9.557-12.581-16.597-24.021-16.597h-227.314c-13.731 0-24.903 10.174-24.903 22.683v207.056c0 12.535 11.172 22.734 24.903 22.734zM86.523 73.457h218.083v198.649h-218.083v-198.649z"></path><path fill="rgb(0,0,0)" d="M910.119 403.392c-2.548-4.439-7.592-7.219-13.092-7.219h-563.825c-2.951-9.559-12.583-16.598-24.008-16.598h-227.314c-13.731 0-24.903 10.2-24.903 22.734v207.054c0 12.507 11.17 22.683 24.903 22.683h227.314c11.439 0 21.080-7.039 24.017-16.597h563.816c5.5 0 10.543-2.782 13.092-7.221l55.229-96.182c2.245-3.907 2.245-8.567 0-12.473l-55.229-96.183zM304.606 605.137h-218.083v-198.648h218.083v198.648zM888.083 588.539h-553.931v-165.452h553.931l47.504 82.725-47.504 82.727z"></path><path fill="rgb(0,0,0)" d="M207.166 109.792h-23.257c-8.158 0-14.772 6.025-14.772 13.456s6.614 13.456 14.772 13.456h8.485v85.562c0 7.43 6.614 13.455 14.774 13.455 8.158 0 14.772-6.025 14.772-13.455v-99.018c-0.002-7.431-6.614-13.456-14.774-13.456z"></path><path fill="rgb(0,0,0)" d="M225.192 542.618c-9.151 0.107-18.797 0.185-27.341 0.217 5.751-7.069 13.272-16.51 22.933-29.086 7.132-9.266 11.804-18.061 13.888-26.146 0.124-0.484 0.222-0.974 0.285-1.469l0.51-3.866c0.071-0.532 0.107-1.069 0.107-1.606 0-21.375-19.116-38.763-42.614-38.763-20.333 0-37.9 13.162-41.776 31.294-1.56 7.295 3.67 14.361 11.677 15.779 8.015 1.423 15.765-3.34 17.323-10.634 1.181-5.522 6.554-9.529 12.777-9.529 6.962 0 12.673 4.966 13.048 11.197l-0.276 2.088c-0.967 3.323-3.348 8.679-9.146 16.213-17.267 22.477-27.519 34.687-33.027 41.25-6.833 8.142-10.596 12.625-8.164 19.923 1.448 4.341 5.028 7.685 9.913 9.2 1.969 0.597 3.641 1.108 24.886 1.108 8.36 0 19.748-0.079 35.376-0.262 8.158-0.095 14.688-6.197 14.581-13.629-0.104-7.429-6.789-13.435-14.96-13.279z"></path><path fill="rgb(0,0,0)" d="M195.567 774.723c-20.271 0-37.857 13.16-41.819 31.293-1.593 7.287 3.603 14.372 11.603 15.824 8.009 1.457 15.782-3.281 17.374-10.569 1.221-5.584 6.622-9.635 12.843-9.635 7.176 0 13.013 5.34 13.013 11.903 0 6.566-5.837 11.905-13.013 11.905-8.158 0-14.772 6.025-14.772 13.456 0 7.43 6.614 13.455 14.772 13.455 7.176 0 13.013 5.319 13.013 11.852 0 6.564-5.837 11.905-13.013 11.905-6.488 0-12.044-4.38-12.909-10.083-0.115-0.793-0.16-1.32-0.16-1.821 0-7.43-6.614-13.455-14.774-13.455-8.158 0-14.772 6.025-14.772 13.455 0 1.694 0.124 3.326 0.422 5.398 2.889 19.051 21.027 33.418 42.192 33.418 23.467 0 42.558-17.413 42.558-38.816 0-9.672-3.918-18.52-10.37-25.318 6.453-6.808 10.37-15.667 10.37-25.352-0.002-21.402-19.094-38.814-42.56-38.814z"></path><path fill="rgb(0,0,0)" d="M400.356 154.23h91.107c8.158 0 14.772-6.025 14.772-13.456s-6.614-13.456-14.772-13.456h-91.107c-8.158 0-14.772 6.025-14.772 13.456s6.614 13.456 14.772 13.456z"></path><path fill="rgb(0,0,0)" d="M400.356 220.309h185.211c8.161 0 14.774-6.025 14.774-13.455 0-7.432-6.613-13.456-14.774-13.456h-185.211c-8.158 0-14.772 6.025-14.772 13.456 0 7.43 6.614 13.455 14.772 13.455z"></path><path fill="rgb(0,0,0)" d="M400.356 485.097h91.107c8.158 0 14.772-6.025 14.772-13.455 0-7.432-6.614-13.456-14.772-13.456h-91.107c-8.158 0-14.772 6.025-14.772 13.456 0 7.43 6.614 13.455 14.772 13.455z"></path><path fill="rgb(0,0,0)" d="M585.567 524.314h-185.211c-8.158 0-14.772 6.025-14.772 13.456 0 7.43 6.614 13.456 14.772 13.456h185.211c8.161 0 14.774-6.026 14.774-13.456 0-7.432-6.613-13.456-14.774-13.456z"></path><path fill="rgb(0,0,0)" d="M400.356 820.241h91.107c8.158 0 14.772-6.025 14.772-13.456 0-7.43-6.614-13.455-14.772-13.455h-91.107c-8.158 0-14.772 6.025-14.772 13.455 0 7.432 6.614 13.456 14.772 13.456z"></path><path fill="rgb(0,0,0)" d="M400.356 886.32h185.211c8.161 0 14.774-6.025 14.774-13.455 0-7.432-6.613-13.456-14.774-13.456h-185.211c-8.158 0-14.772 6.025-14.772 13.456 0 7.43 6.614 13.455 14.772 13.455z"></path><path fill="rgb(0,0,0)" d="M910.119 736.478c-2.549-4.439-7.592-7.219-13.092-7.219h-245.251c-8.159 0-14.772 6.025-14.772 13.456 0 7.43 6.613 13.455 14.772 13.455h236.31l47.501 82.725-47.5 82.679h-553.936v-165.402h248.529c8.161 0 14.774-6.025 14.774-13.455 0-7.432-6.613-13.456-14.774-13.456h-249.467c-2.937-9.557-12.58-16.598-24.019-16.598h-227.315c-13.731 0-24.903 10.176-24.903 22.683v207.056c0 12.535 11.17 22.733 24.903 22.733h227.314c11.446 0 21.091-7.062 24.022-16.649h563.811c5.497 0 10.539-2.78 13.092-7.216l55.229-96.132c2.245-3.907 2.245-8.569 0-12.476l-55.229-96.183zM304.606 938.221h-218.083v-198.65h218.083v198.65z"></path></g>
</svg>
