<?xml version="1.0" encoding="utf-8"?>
<!-- Generator: Adobe Illustrator 17.0.0, SVG Export Plug-In . SVG Version: 6.00 Build 0)  -->
<!DOCTYPE svg PUBLIC "-//W3C//DTD SVG 1.1//EN" "http://www.w3.org/Graphics/SVG/1.1/DTD/svg11.dtd">
<svg version="1.1" id="Layer_1" xmlns="http://www.w3.org/2000/svg" xmlns:xlink="http://www.w3.org/1999/xlink" x="0px" y="0px"
	 width="1025px" height="1024px" viewBox="0 0 1025 1024" enable-background="new 0 0 1025 1024" xml:space="preserve">
<g><path fill="rgb(0,0,0)" d="M962.076 170.804h-258.271c-27.636-72.26-103.174-124.259-191.805-124.259-32.281 0-63.159 6.706-91.772 19.934-17.033 7.874-3.663 31.867 13.373 23.998 24.432-11.294 50.807-17.021 78.4-17.021 95.668 0 173.501 70.894 173.501 158.035 0 87.139-77.833 158.034-173.501 158.034s-173.501-70.895-173.501-158.034c0-37.686 14.805-74.18 41.688-102.758 12.428-13.21-10.010-30.726-22.438-17.511-16.612 17.66-29.237 37.917-37.5 59.579h-258.324c-29.869 0-54.167 22.132-54.167 49.338v695.654c0 27.206 24.298 49.338 54.167 49.338h900.152c29.868 0 54.166-22.132 54.166-49.338v-695.651c0-27.207-24.298-49.339-54.166-49.339zM962.076 197.716c13.577 0 24.621 10.060 24.621 22.427v100.004h-296.546c22.35-37.111 29.957-80.815 21.49-122.432h250.435zM61.924 197.716h250.469c-8.493 41.629-0.905 85.305 21.454 122.432h-296.544v-100.004c0-12.367 11.044-22.427 24.621-22.427zM962.076 938.221h-900.152c-13.577 0-24.621-10.060-24.621-22.427v-568.734h316.3c37.243 42.266 94.405 69.378 158.397 69.378 64.107 0 121.363-27.209 158.602-69.607 0.863 0.143 316.095 0.23 316.095 0.23v568.734c0 12.367-11.044 22.427-24.621 22.427z"></path><path fill="rgb(0,0,0)" d="M825.508 696.542h-627.017c-109.279 0-109.466 154.646 0 154.646h627.015c109.281 0 109.467-154.646 0.002-154.646zM825.508 824.275h-627.017c-71.215 0-71.705-100.822 0-100.822h627.015c71.216 0 71.705 100.822 0.002 100.822z"></path><path fill="rgb(0,0,0)" d="M246.384 760.408c-19.011 0-19.043 26.913 0 26.913 19.011 0 19.042-26.913 0-26.913z"></path><path fill="rgb(0,0,0)" d="M322.27 760.408c-19.011 0-19.042 26.913 0 26.913 19.012 0 19.043-26.913 0-26.913z"></path><path fill="rgb(0,0,0)" d="M398.164 760.408c-19.011 0-19.042 26.913 0 26.913 19.012 0 19.043-26.913 0-26.913z"></path><path fill="rgb(0,0,0)" d="M474.058 760.408c-19.011 0-19.042 26.913 0 26.913 19.012 0 19.043-26.913 0-26.913z"></path><path fill="rgb(0,0,0)" d="M549.945 760.408c-19.012 0-19.043 26.913 0 26.913 19.011 0 19.042-26.913 0-26.913z"></path><path fill="rgb(0,0,0)" d="M625.832 760.408c-19.012 0-19.043 26.913 0 26.913 19.009 0 19.040-26.913 0-26.913z"></path><path fill="rgb(0,0,0)" d="M701.725 760.408c-19.012 0-19.043 26.913 0 26.913 19.011 0 19.043-26.913 0-26.913z"></path><path fill="rgb(0,0,0)" d="M777.612 760.408c-19.012 0-19.043 26.913 0 26.913 19.011 0 19.043-26.913 0-26.913z"></path><path fill="rgb(0,0,0)" d="M825.508 493.489h-627.017c-109.279 0-109.466 154.646 0 154.646h497.276c19.099 0 19.099-26.913 0-26.913h-497.276c-71.215 0-71.705-100.822 0-100.822h627.015c71.215 0 71.705 100.822 0 100.822h-50.952c-19.101 0-19.101 26.913 0 26.913h50.952c109.281 0 109.467-154.646 0.002-154.646z"></path><path fill="rgb(0,0,0)" d="M512 122.080c-28.968 0-52.533 21.465-52.533 47.851v31.738c-17.309 1.656-30.846 15.024-30.846 31.219v69.441c0 17.312 15.464 31.398 34.47 31.398h97.818c19.006 0 34.47-14.086 34.47-31.398v-69.441c0-16.196-13.535-29.563-30.846-31.219v-31.738c0-26.386-23.566-47.851-52.534-47.851zM489.013 169.929c0-26.194 45.978-27.393 45.978 0v31.56h-45.978v-31.56zM565.834 302.328c0 2.473-2.211 4.485-4.925 4.485h-97.818c-2.715 0-4.925-2.012-4.925-4.485v-69.441c0-2.472 2.209-4.485 4.925-4.485h97.818c2.714 0 4.925 2.014 4.925 4.485v69.441z"></path><path fill="rgb(0,0,0)" d="M792.385 570.816c0-7.432-6.614-13.456-14.772-13.456h-531.228c-19.099 0-19.099 26.911 0 26.911h531.228c8.158 0 14.772-6.025 14.772-13.455z"></path><path fill="rgb(0,0,0)" d="M511.998 254.155c-19.012 0-19.043 26.911 0 26.911 19.011 0 19.042-26.911 0-26.911z"></path></g>
</svg>
