<?xml version="1.0" encoding="utf-8"?>
<!-- Generator: Adobe Illustrator 17.0.0, SVG Export Plug-In . SVG Version: 6.00 Build 0)  -->
<!DOCTYPE svg PUBLIC "-//W3C//DTD SVG 1.1//EN" "http://www.w3.org/Graphics/SVG/1.1/DTD/svg11.dtd">
<svg version="1.1" id="Layer_1" xmlns="http://www.w3.org/2000/svg" xmlns:xlink="http://www.w3.org/1999/xlink" x="0px" y="0px"
	 width="1025px" height="1024px" viewBox="0 0 1025 1024" enable-background="new 0 0 1025 1024" xml:space="preserve">
<g><path fill="rgb(0,0,0)" d="M815.43 329.605c-0.024-2-0.649-3.922-1.36-5.813-0.203-0.563-0.155-1.179-0.413-1.719l-0.024-0.070-119.665-239.344v-65.313c0-5.234-2.359-10.187-6.422-13.469-4.062-3.297-9.414-4.578-14.507-3.5l-329.766 69.422c-8.032 1.68-13.781 8.766-13.781 16.977v63.953l-118.352 169.086c-0.101 0.155-0.101 0.367-0.203 0.515-1.265 1.946-2.156 4.094-2.57 6.39-0.070 0.345-0.085 0.657-0.125 1.009-0.085 0.672-0.242 1.336-0.242 2.031v572.751c0 6.944 4.134 13.227 10.515 15.945l242.985 104.141c0.196 0.085 0.382 0.055 0.579 0.125 2.007 0.766 4.094 1.282 6.258 1.282 1.476 0 2.953-0.188 4.413-0.57l329.766-86.782c7.632-2.016 12.945-8.905 12.945-16.782v-590.109l-0.031-0.155zM572.476 90.956v-33.945l34.712-7.313v33.953l-34.712 7.305zM537.766 98.261l-34.71 7.313v-33.953l34.71-7.305v33.945zM468.337 112.878l-34.712 7.305v-33.406c0-0.172-0.101-0.328-0.101-0.508l34.813-7.336v33.945zM371.82 168.675l295.267-62.164 105.936 211.899-295.084 77.648-106.119-227.383zM780.751 373.76l-295.055 248.47v-192.329l295.055-77.648v21.507zM242.71 354.386l208.275 74.39v204.438l-208.275-89.259v-189.57zM242.71 581.699l208.275 89.265v222.57l-208.275-89.257v-222.578zM485.695 667.597l295.055-248.453v231.984l-295.055 232.914v-216.445zM659.258 72.682l-17.36 3.641v-33.93l17.36-3.64v33.93zM364.203 100.847l34.712-7.305v33.945l-34.712 7.312v-33.953zM343.828 190.768l91.203 195.43-182.407-65.155 91.204-130.275zM242.71 842.042l208.275 89.257v49.017l-208.275-89.267v-49.007zM485.695 984.136v-55.852l295.055-232.936v211.156l-295.055 77.633z"></path><path fill="rgb(0,0,0)" d="M556.849 310.001c8.055 9.499 21.212 19.391 40.946 19.391 5.35 0 11.179-0.712 17.516-2.376 29.749-7.796 39.608-27.93 42.641-43.46 3.366-17.236-0.469-35.36-3.642-47.478-16.352-62.461-51.726-67.195-78.515-60.203-26.82 7.008-55.335 28.493-39.001 90.945 3.142 12.133 8.673 29.821 20.055 43.18zM584.554 209.478c2.898-0.766 5.811-1.352 8.718-1.352 9.892 0 19.61 6.796 27.453 36.741 2.304 8.852 5.156 21.782 3.156 32.039-1.28 6.562-4.265 13.102-17.352 16.524-13.070 3.437-18.889-0.812-23.226-5.898-6.765-7.985-10.617-20.64-12.945-29.478-10.156-38.735 1.461-45.242 14.196-48.577z"></path></g>
</svg>
