<?xml version="1.0" encoding="utf-8"?>
<!-- Generator: Adobe Illustrator 17.0.0, SVG Export Plug-In . SVG Version: 6.00 Build 0)  -->
<!DOCTYPE svg PUBLIC "-//W3C//DTD SVG 1.1//EN" "http://www.w3.org/Graphics/SVG/1.1/DTD/svg11.dtd">
<svg version="1.1" id="Layer_1" xmlns="http://www.w3.org/2000/svg" xmlns:xlink="http://www.w3.org/1999/xlink" x="0px" y="0px"
	 width="1025px" height="1024px" viewBox="0 0 1025 1024" enable-background="new 0 0 1025 1024" xml:space="preserve">
<g><path fill="rgb(0, 0,0)" d="M995.676 671.28c-1.468-25.68-15.469-48.966-37.472-62.296-27.539-16.688-61.911-14.898-87.572 4.552l-53.876 40.84-88.583-88.586c-23.033-23.032-52.358-37.458-84.094-41.744v-21.544c6.658 0.742 14.642 1.308 23.596 1.308 35.028 0 84.569-8.616 124.832-48.876 68.956-68.955 44.496-164.478 43.424-168.511-1.843-6.922-7.257-12.33-14.179-14.174-4.028-1.077-99.553-25.53-168.508 43.422-2.186 2.186-4.276 4.4-6.278 6.636 0.87-32.726-5.858-81.864-45.396-121.402-64.15-64.147-152.979-41.404-156.729-40.404-6.922 1.844-12.33 7.252-14.174 14.174-1 3.75-23.744 92.581 40.404 156.731 37.457 37.455 83.539 45.468 116.111 45.468 6.174 0 11.842-0.292 16.896-0.722v147.896c-31.738 4.286-61.062 18.714-84.094 41.744l-64.406 64.406-25.94-7.044c-42.116-11.438-87.727-5.108-125.136 17.374l-266.617 160.206c-9.468 5.693-12.53 17.981-6.84 27.45 3.752 6.24 10.372 9.701 17.162 9.701 3.506 0 7.058-0.922 10.284-2.86l266.617-160.214c28.116-16.896 62.396-21.656 94.050-13.056l169.901 46.144c10.073 2.731 16.417 12.568 14.756 22.876-1.598 9.912-10.046 17.108-20.088 17.108h-129.453c-11.046 0-20 8.957-20 20.002s8.955 19.995 20 19.995h245.86c4.355 0 8.602-1.427 12.076-4.062l182.579-138.406c12.506-9.482 29.266-10.352 42.687-2.218 10.882 6.593 17.538 17.66 18.261 30.364 0.724 12.706-4.635 24.455-14.698 32.238l-189.010 146.289c-19.825 15.346-44.544 23.798-69.607 23.798h-79.436c-11.046 0-20 8.95-20 19.995s8.954 20.002 20 20.002h79.436c33.877 0 67.293-11.421 94.088-32.16l189.010-146.289c20.35-15.742 31.614-40.475 30.153-66.15zM681.529 343.957c40.542-40.535 94.261-38.618 117.935-35.301 3.229 23.652 5.086 77.668-35.246 117.993-39.909 39.913-94.299 38.68-118.401 35.712-2.966-24.104-4.2-78.49 35.712-118.404zM499.358 303.123c-36.214-36.214-35.13-84.085-32.224-106.149 22.108-2.914 69.956-3.979 106.151 32.22 35.642 35.641 35.172 84.070 32.596 106.517-22.486 2.586-70.894 3.042-106.523-32.588zM693.412 747.882h-52.851c1.218-3.434 2.144-7.025 2.744-10.738 4.93-30.563-13.883-59.734-43.76-67.85l-99.478-27.018 48.204-48.204c20.25-20.25 47.17-31.402 75.809-31.402 28.638 0 55.56 11.152 75.809 31.404l84.692 84.694-91.17 69.114z"></path><path fill="rgb(0, 0,0)" d="M530.14 881.732c-3.72-3.721-8.88-5.857-14.14-5.857s-10.42 2.137-14.14 5.857c-3.72 3.721-5.86 8.881-5.86 14.145 0 5.257 2.14 10.417 5.86 14.138s8.88 5.857 14.14 5.857c5.26 0 10.42-2.137 14.14-5.857s5.86-8.881 5.86-14.138c0-5.263-2.14-10.424-5.86-14.145z"></path><path fill="rgb(0, 0,0)" d="M428.003 875.875h-36.176c-5.304 0-10.392 2.109-14.142 5.857l-108.121 108.121c-7.81 7.81-7.81 20.473 0 28.29 3.906 3.905 9.024 5.857 14.142 5.857s10.238-1.952 14.142-5.857l102.263-102.27h27.894c11.046 0 20-8.95 20-19.995-0.006-11.046-8.956-20.002-20.002-20.002z"></path><path fill="rgb(0, 0,0)" opacity="0.5" d="M838.212 124.191c-43.513-43.51-114.306-43.51-157.822 0-7.81 7.81-7.81 20.474 0 28.286 7.812 7.808 20.476 7.808 28.286 0 27.914-27.918 73.339-27.918 101.253 0 3.905 3.901 9.025 5.856 14.145 5.856 5.113 0 10.233-1.954 14.138-5.858 7.81-7.81 7.81-20.474 0-28.284z"></path><path fill="rgb(0, 0,0)" opacity="0.5" d="M902.977 59.416c-79.223-79.224-208.138-79.226-287.358 0-7.81 7.81-7.812 20.474 0 28.284 3.903 3.908 9.019 5.86 14.139 5.86 5.118 0 10.238-1.954 14.142-5.858 63.629-63.632 167.163-63.63 230.794 0 7.81 7.808 20.473 7.808 28.283 0 7.81-7.81 7.81-20.474 0-28.286z"></path><path fill="rgb(0, 0,0)" opacity="0.5" d="M773.42 189.381c-3.721-3.721-8.881-5.86-14.138-5.86-5.263 0-10.424 2.139-14.145 5.86s-5.857 8.879-5.857 14.16c0 5.26 2.137 10.42 5.857 14.14s8.881 5.86 14.145 5.86c5.257 0 10.417-2.14 14.138-5.86 3.721-3.74 5.857-8.88 5.857-14.14 0-5.28-2.137-10.44-5.857-14.16z"></path></g>
</svg>
