<?xml version="1.0" encoding="utf-8"?>
<!-- Generator: Adobe Illustrator 17.0.0, SVG Export Plug-In . SVG Version: 6.00 Build 0)  -->
<!DOCTYPE svg PUBLIC "-//W3C//DTD SVG 1.1//EN" "http://www.w3.org/Graphics/SVG/1.1/DTD/svg11.dtd">
<svg version="1.1" id="Layer_1" xmlns="http://www.w3.org/2000/svg" xmlns:xlink="http://www.w3.org/1999/xlink" x="0px" y="0px"
	 width="1025px" height="1024px" viewBox="0 0 1025 1024" enable-background="new 0 0 1025 1024" xml:space="preserve">
<g><path d="M979.818 279.784c-36.453-89.766-104.438-206.532-221.454-253.102-85.844-34.172-185.322-25.977-295.642 24.305-137.938 62.883-183.062 175.594-126.991 317.393 17.382 43.976 10.781 92.008-17.688 128.476-28.508 36.531-73.634 54.531-120.61 48.485-74.922-9.82-132.415 6.968-166.352 48.618-25.984 31.906-48.977 92.836-11.062 201.899l0.711 1.773c2.703 5.907 68.414 145.212 237.055 200.97 36.431 12.047 74.165 15.391 110.657 18.609l5.765 0.515c12.172 1.085 33.196 2.485 60.477 2.485 68.103 0 175.305-8.711 281.774-52.767 155.11-64.172 253.517-178.446 292.478-339.657 27.383-113.266 17.304-233.626-29.117-348.001zM970.528 618.496c-35.82 148.258-126.384 253.384-269.181 312.455-140.79 58.22-283.25 50.992-323.618 47.415l-5.789-0.515c-35.813-3.164-69.641-6.164-101.728-16.775-145.742-48.188-207.977-168.586-213.235-179.249-24.539-71.188-22.86-128.993 4.742-162.915 24.836-30.469 69.977-42.32 130.532-34.4 61.187 8.079 119.75-15.648 156.945-63.336 37.164-47.633 45.838-110.188 23.258-167.32-48.524-122.75-12.641-212.54 106.65-266.915 100.164-45.641 189.203-53.563 264.632-23.547 104.064 41.406 165.885 148.609 199.446 231.251 43.329 106.687 52.774 218.65 27.344 323.852z"></path><path d="M661.057 372.291c54.468 0 98.782-44.314 98.782-98.79 0-54.468-44.314-98.782-98.782-98.782-54.47 0-98.782 44.314-98.782 98.782 0 54.477 44.312 98.79 98.782 98.79zM661.057 214.234c32.679 0 59.274 26.586 59.274 59.266 0 32.688-26.595 59.274-59.274 59.274s-59.274-26.586-59.274-59.274c0-32.679 26.595-59.266 59.274-59.266z"></path><path d="M944.067 480.128c-2.507-56.508-14.742-113.507-37.265-169.001-85.782-211.195-226.642-275.446-417.893-188.383-38.289 17.469-154.774 70.579-91.766 229.93 22.929 58.047 16.297 120.439-18.203 171.119-39.055 57.429-106.641 87.477-176.539 78.251-52.063-6.955-91.118 3.383-109.142 28.773-19.102 26.883-18.93 73.453 0.516 131.079l1.148 2.71c9.859 19.243 65.43 117.315 191.399 158.986 28.633 9.46 59.906 12.227 92.977 15.148l5.593 0.492c16.751 1.509 34.734 2.258 53.461 2.258 373.205 0 469.618-232.204 493.744-332.056 9.914-41.032 13.687-83.212 12.126-125.687 0.116-1.251-0.024-2.415-0.157-3.618zM505.308 158.705c50.046-22.821 96.133-34.375 136.992-34.375 96.867 0 173.539 67.868 227.891 201.657 16.242 40.008 26.554 80.821 31.555 121.562-88.492-24.975-245.219 52.649-271.384 66.127-118.164 37.577-172.89-16.297-187.907-35.36 12.15-45.382 9.704-93.882-8.593-140.157-43.32-109.672 11.805-152.265 71.446-179.454zM411.643 546.019c5.946-8.735 11.023-17.819 15.609-27.069 23.095 21.164 64.212 47.101 127.485 47.101 25.962 0 55.658-4.383 89.322-15.249 1.046-0.336 2.055-0.758 3.046-1.266 77.821-40.538 212.681-89.774 257.963-57.812 0.812 36.687-2.83 73.054-11.36 108.445-0.196 0.788-0.439 1.664-0.633 2.47-43.032-12.111-147.384-24.259-319.602 58.342-58.899 28.25-109.751 33.766-151.103 16.439-39.984-16.751-62.367-51.548-72.289-71.101 23.805-15.688 44.906-35.821 61.563-60.298zM388.424 899.864l-5.608-0.5c-30.759-2.702-59.798-5.272-84.079-13.297-109.984-36.39-160.071-123.257-167.993-138.235-16.93-50.968-13.852-82.007-5.258-94.141 8.594-12.109 36.336-17.171 71.757-12.484 39.516 5.212 78.298-0.335 113.447-14.406 1.186 6.422 2.429 13.696 3.57 21.531 10.078 68.719 48.445 130.594 105.25 169.813 40.656 28.039 68.14 53.321 69.383 82.109-16.258 1.048-32.976 1.719-50.54 1.719-17.546-0.015-34.359-0.734-49.93-2.109zM528.401 896.724c-3.18-53.547-56.047-90.132-86.453-111.118-34.712-23.938-61.227-57.96-76.399-96.945 11.617 9.586 25.235 18.297 41.054 24.992 52.337 22.149 114.212 16.422 183.979-17.046 161.782-77.611 256.36-65.493 290.939-56.071-32.845 90.406-120.643 227.773-353.12 256.188z"></path></g>
</svg>
