<?xml version="1.0" encoding="utf-8"?>
<!-- Generator: Adobe Illustrator 17.0.0, SVG Export Plug-In . SVG Version: 6.00 Build 0)  -->
<!DOCTYPE svg PUBLIC "-//W3C//DTD SVG 1.1//EN" "http://www.w3.org/Graphics/SVG/1.1/DTD/svg11.dtd">
<svg version="1.1" id="Layer_1" xmlns="http://www.w3.org/2000/svg" xmlns:xlink="http://www.w3.org/1999/xlink" x="0px" y="0px"
	 width="1025px" height="1024px" viewBox="0 0 1025 1024" enable-background="new 0 0 1025 1024" xml:space="preserve">
<g><path fill="rgb(0,0,0)" d="M969.859 354.693c1.422-69.274-39.267-131.577-102.306-158.515-9.196-59.11-56.835-105.313-116.038-113.141-0.532-5.891-1.649-11.758-3.345-17.555-10.436-35.649-41.875-62.492-78.179-66.797-23.204-2.758-46.094 3.094-64.736 16.172-16.561-10.961-35.828-16.867-55.578-16.867-50.86 0-93.126 37.57-100.485 86.422-1.812 0.367-3.562 0.883-5.335 1.312-1.673-4.039-3.4-8.023-5.361-11.898-25.984-51.446-71.883-81.352-114.413-74.485-27.914 4.531-51.040 23.5-64.609 52.102-24.547-11.297-49.594-13.219-72.228-5.25-24.133 8.508-42.883 26.672-54.219 52.555-15.031 34.297-15.047 78.391-0.516 120.337-19.586 13.452-34.227 33.21-42.781 57.991-14.391 41.61-9.586 91.814 13.164 137.798 2.492 5.016 5.211 9.999 8.18 14.891-21.359 13.891-37.359 34.492-45.93 59.626-13.625 39.883-7.594 86.883 16.539 128.898 11.086 19.306 25.766 36.789 42.86 51.164-5.711 23.907-1.391 50.181 12.524 73.962 19.586 33.415 54.805 55.929 91.914 59.547 58.453 109.773 130.976 156.914 242.587 204.227l1.241 0.539c15.696 9.836 33.587 14.266 51.29 14.266 10.515 0 20.883-1.625 30.672-4.398 0.155-0.055 0.319-0.032 0.476-0.087 0.079-0.031 0.125-0.085 0.195-0.125 8.329-2.437 16.258-5.656 23.305-9.766 33.766-19.71 47.445-53.383 35.688-87.859-33.727-98.961-30.985-173.283 8.165-220.853 67.758-82.304 224.961-62.078 226.509-61.812l18.289 2.483 1.828-18.359c0.251-2.415 5.501-59.735-27.945-98.673-1.939-2.258-3.977-4.413-6.101-6.46 9.445-2.094 18.804-5.088 27.984-8.986 63.445-26.82 105.344-86.625 106.696-152.407zM255.881 777.569l-4.985-9.781-10.976 0.070c-0.157 0-0.321 0-0.461 0-28.017 0-56.783-16.998-71.673-42.445-10.852-18.531-13.070-38.758-6.102-55.501l5.406-12.967-11.352-8.267c-17.484-12.742-32.43-29.375-43.203-48.14-19.024-33.14-24.039-69.485-13.719-99.688 7.727-22.593 23.219-39.241 44.813-48.172l21.078-8.702-13.57-18.306c-6.352-8.585-11.867-17.538-16.352-26.593-18.266-36.931-22.555-78.196-11.422-110.375 7.367-21.352 20.852-37.219 38.961-45.867l15.226-7.289-6.492-15.602-0.789-1.688c-15.633-36.929-17.398-76.195-4.656-105.226 5.071-11.578 15.016-26.774 33.462-33.266 17.749-6.258 38.977-1.922 59.875 12.133l20.531 13.844 6.547-23.891c7.359-26.789 23.296-44.063 43.757-47.367 26.665-4.539 58.259 18.445 76.923 55.375 1.492 2.969 2.883 5.992 4.164 9.094-0.415 0.227-0.751 0.531-1.157 0.766-3.647 2.164-7.187 4.516-10.585 7.039-2.048 1.5-3.97 3.094-5.907 4.719-1.297 1.086-2.563 2.203-3.804 3.32-7.158 6.422-13.501 13.578-18.97 21.383-0.406 0.586-0.782 1.18-1.188 1.766-3.149 4.656-5.961 9.492-8.468 14.531-0.625 1.227-1.266 2.453-1.852 3.695-1.085 2.391-2.077 4.789-3.016 7.242-1 2.563-1.852 5.156-2.671 7.789-0.681 2.195-1.352 4.359-1.9 6.601-0.985 3.828-1.749 7.728-2.352 11.672-0.21 1.446-0.406 2.867-0.585 4.328-0.585 4.876-0.976 9.798-0.976 14.812 0 3.258 0.14 6.509 0.391 9.822-67.422 12.124-117.767 70.702-117.767 141.094 0 20.352 4.391 40.523 12.829 59.078-18.946 20.267-29.587 46.93-29.587 75.071 0 42.054 24.156 80.195 61.281 98.555-0.085 9.515 0.055 18.782 0.375 27.875 0.109 2.968 0.336 5.852 0.485 8.789 0.297 6.047 0.655 12.078 1.155 17.961 0.282 3.367 0.672 6.656 1.009 9.96 0.555 5.321 1.155 10.61 1.891 15.782 0.461 3.383 0.992 6.743 1.531 10.071 0.797 4.983 1.671 9.905 2.632 14.781 0.642 3.289 1.314 6.562 2.024 9.82 1.070 4.852 2.243 9.679 3.47 14.445 0.788 3.077 1.57 6.147 2.406 9.196 1.405 4.999 2.937 9.921 4.514 14.812 0.86 2.688 1.673 5.407 2.587 8.078 2.007 5.891 4.21 11.711 6.492 17.509 0.625 1.577 1.171 3.219 1.812 4.796 2.968 7.328 6.156 14.611 9.547 21.813 0.961 2.048 2.031 4.070 3.023 6.101 2.507 5.158 5.055 10.298 7.781 15.423 1.454 2.741 3.024 5.484 4.555 8.235 2.437 4.398 4.891 8.788 7.485 13.148 1.758 2.968 3.593 5.937 5.405 8.89 2.548 4.149 5.14 8.289 7.828 12.438 1.976 3.062 4 6.117 6.047 9.178 2.758 4.11 5.586 8.219 8.486 12.344 2.132 3.063 4.289 6.117 6.508 9.18 3.046 4.195 6.195 8.429 9.359 12.663 2.258 3.009 4.461 6.016 6.796 9.040 3.454 4.499 7.064 9.054 10.672 13.609 2.203 2.789 4.337 5.547 6.603 8.359 0.195 0.249 0.389 0.5 0.585 0.749-65.336-36.398-111.517-80.655-151.774-159.712zM770.429 480.538l-4.734-0.788-17.219 3.983-1.891 39.258 17.758 0.945c21.898 1.118 38.188 8.219 49.806 21.649 14.109 16.312 18.374 38.82 19.531 54.313-48.939-3.188-173.353-2.712-238.478 76.273-47.602 57.726-52.453 143.524-14.461 255.024 8.414 24.713-8.892 39.212-19.961 45.665-0.782 0.468-1.673 0.765-2.47 1.195-34.797-85.601-56.515-161.758-68.219-229.321-0.079-0.428-0.109-0.835-0.195-1.241-9.25-53.9-12.259-102.337-10.516-145.727 24.907-42.462 98.109-44.172 98.852-44.189 9.82-0.164 17.664-8.218 17.524-18.038-0.14-9.75-8.055-17.539-17.766-17.539-0.077 0-0.14 0-0.218 0-2.898 0.031-53.617 1.14-93.851 26.366 4.907-35.226 13.078-66.429 23.195-94.14 1-1.212 1.906-2.531 2.579-4.040 1.038-2.273 1.516-4.664 1.546-7.008 12.757-32.094 28.109-59.023 44.087-81.493 79.758-16.594 139.936 8.361 141.273 8.916 2.336 1.031 4.75 1.492 7.101 1.492 6.852 0 13.375-3.985 16.312-10.633 3.946-9.001-0.164-19.5-9.148-23.446-2.47-1.085-51.546-22.023-122.117-16.882 34.461-35.954 64.734-52.251 69.234-54.54 25.844-12.382 63.609 3.61 76.008 10.853 2.828 1.671 5.922 2.452 8.999 2.452 6.086 0 12.032-3.133 15.336-8.75 4.985-8.468 2.188-19.359-6.296-24.352-2.033-1.21-42.025-24.335-82.985-19.695 3.5-14.421 11.273-27.53 15.242-32.797 5.961-7.796 4.461-18.946-3.343-24.906-7.774-5.961-18.97-4.5-24.922 3.329-1.125 1.437-24.462 32.391-24.407 68.023-25.882 15.852-92.751 63.899-139.539 160.454-2.524 5.195-4.961 10.781-7.383 16.391-48.524-33.179-40.538-92.203-40.093-95.063 1.516-9.679-5.088-18.773-14.781-20.32-9.68-1.633-18.821 5.071-20.367 14.766-5.158 32.288 2.241 98.819 62.172 134.554-13.235 38.931-23.267 85.391-26.368 140.235-0.352 1.727-0.43 3.4-0.282 5.101-1.852 38.446-0.070 81.087 6.118 127.783-22.555-12.414-32.876-30.578-33.533-31.805-4.64-8.632-15.351-11.938-23.992-7.368-8.687 4.57-12.046 15.336-7.453 24.032 0.939 1.804 22.234 41.165 71.453 56.375 11.953 65.609 32.963 138.953 65.696 220.423-11.242-0.155-22.328-2.953-31.79-8.914l0.017-0.046c-1.915-1.236-3.516-2.422-5.086-3.633-1.939-1.579-3.9-3.125-5.603-5.031-0.085-0.094-0.195-0.179-0.28-0.273l-7.477-8.501c-111.391-128.203-167.149-221.984-162.712-378.813l0.375-12.969-12.242-4.304c-29.689-10.516-49.649-38.688-49.649-70.11 0-22.359 9.929-43.329 27.218-57.523l11.672-9.571-7.578-13.078c-9.516-16.452-14.554-35.116-14.554-53.953 0-57.993 45.437-105.298 103.429-107.727l21.61-0.906-5.055-21.031c-1.743-7.219-2.609-14.391-2.609-21.25 0-5.461 0.602-10.783 1.548-16.017 0.225-1.335 0.601-2.609 0.882-3.913 0.93-4.070 2.086-8.078 3.54-11.93 0.389-1.070 0.804-2.118 1.249-3.173 1.937-4.57 4.14-9.015 6.774-13.179 0.109-0.156 0.179-0.336 0.282-0.5 5.734-8.961 13.046-16.805 21.46-23.32 1.157-0.891 2.384-1.672 3.57-2.508 2.852-1.992 5.806-3.789 8.861-5.445 1.922-1.031 3.843-2.023 5.85-2.914 9.359-4.219 19.461-7.133 30.188-7.93l16.439-1.25v-16.539l-0.032-1.391c0.602-35.969 30.008-65.070 66.118-65.070 16.085 0 31.742 6.125 44.063 17.242l12.476 11.258 11.953-11.813c12.554-12.414 29.797-18.359 47.642-16.234 22.335 2.633 41.726 19.297 48.203 41.461 2.156 7.313 2.797 14.75 1.922 22.094l-1.836 19.836h20.016c52.070 0 95.633 40.703 99.212 92.664l0.819 11.68 11.047 3.883c54.485 19.101 90.274 70.671 89.086 128.328-1.070 51.767-34.43 98.993-84.961 120.337-25.438 10.711-51.249 12.735-78.891 6.211z"></path></g>
</svg>
