<?xml version="1.0" encoding="utf-8"?>
<!-- Generator: Adobe Illustrator 17.0.0, SVG Export Plug-In . SVG Version: 6.00 Build 0)  -->
<!DOCTYPE svg PUBLIC "-//W3C//DTD SVG 1.1//EN" "http://www.w3.org/Graphics/SVG/1.1/DTD/svg11.dtd">
<svg version="1.1" id="Layer_1" xmlns="http://www.w3.org/2000/svg" xmlns:xlink="http://www.w3.org/1999/xlink" x="0px" y="0px"
	 width="1025px" height="1024px" viewBox="0 0 1025 1024" enable-background="new 0 0 1025 1024" xml:space="preserve">
<g><path fill="rgb(0, 0, 0)" stroke="rgb(0, 0,0)" stroke-linejoin="miter" stroke-linecap="butt" stroke-miterlimit="4" stroke-width="11.377777777777778" d="M86.401 129.895l0.052-0.107 0.047-0.109c0.441-1.017 1.094-1.984 1.95-2.84 2.008-1.626 4.69-2.587 7.55-2.587 2.879 0 5.578 0.974 7.591 2.62 1.812 1.731 2.721 3.921 2.721 6.083 0 2.187-0.93 4.401-2.783 6.141-1.938 1.712-4.631 2.744-7.529 2.744-2.9 0-5.595-1.034-7.533-2.748-0.874-0.817-1.516-1.759-1.919-2.747l-0.068-0.168-0.079-0.163c-0.477-0.986-0.712-2.026-0.712-3.060s0.236-2.074 0.712-3.060z"></path><path fill="rgb(0, 0, 0)" stroke="rgb(0, 0,0)" stroke-linejoin="miter" stroke-linecap="butt" stroke-miterlimit="4" stroke-width="11.377777777777778" d="M139.743 124.933l0.080-0.027 0.077-0.029c1.965-0.729 4.145-0.929 6.257-0.558 2.067 0.363 3.919 1.245 5.358 2.48 1.817 1.778 2.755 4.002 2.798 6.217 0.005 1.63-0.518 3.275-1.577 4.728-1.071 1.47-2.656 2.692-4.611 3.431-1.957 0.74-4.139 0.939-6.248 0.554-2.101-0.384-3.964-1.317-5.376-2.609-1.872-1.744-2.811-3.97-2.811-6.168 0-2.188 0.932-4.404 2.788-6.145 0.902-0.801 2.012-1.449 3.267-1.874z"></path><path fill="rgb(0, 0, 0)" stroke="rgb(0, 0,0)" stroke-linejoin="miter" stroke-linecap="butt" stroke-miterlimit="4" stroke-width="11.377777777777778" d="M187.98 141.058v0l-0.032-0.012c-1.32-0.503-2.518-1.192-3.553-2.024-1.802-1.729-2.706-3.912-2.706-6.068 0-2.172 0.917-4.371 2.745-6.106 0.968-0.817 2.121-1.484 3.408-1.947 1.988-0.711 4.179-0.898 6.302-0.526 2.068 0.363 3.929 1.231 5.395 2.45 1.803 1.778 2.733 3.997 2.773 6.206 0.009 1.079-0.215 2.163-0.677 3.196-0.466 1.039-1.172 2.020-2.105 2.87-0.934 0.851-2.073 1.549-3.364 2.029-1.29 0.48-2.689 0.726-4.107 0.713-1.415-0.016-2.802-0.285-4.079-0.781z"></path><path fill="rgb(0, 0, 0)" stroke="rgb(0, 0,0)" stroke-linejoin="miter" stroke-linecap="butt" stroke-miterlimit="4" stroke-width="11.377777777777778" d="M245.689 345.87v-17.77h212.621v17.77h-212.621z"></path><path fill="rgb(0, 0, 0)" stroke="rgb(0, 0,0)" stroke-linejoin="miter" stroke-linecap="butt" stroke-miterlimit="4" stroke-width="11.377777777777778" d="M245.689 433.311v-17.77h212.621v17.77h-212.621z"></path><path fill="rgb(0, 0, 0)" stroke="rgb(0, 0,0)" stroke-linejoin="miter" stroke-linecap="butt" stroke-miterlimit="4" stroke-width="11.377777777777778" d="M245.689 520.754v-17.77h292.622v17.77h-292.622z"></path><path fill="rgb(0, 0, 0)" stroke="rgb(0, 0,0)" stroke-linejoin="miter" stroke-linecap="butt" stroke-miterlimit="4" stroke-width="11.377777777777778" d="M245.689 608.196v-17.77h196.622v17.77h-196.622z"></path><path fill="rgb(0, 0, 0)" stroke="rgb(0, 0,0)" stroke-linejoin="miter" stroke-linecap="butt" stroke-miterlimit="4" stroke-width="11.377777777777778" d="M245.689 695.64v-17.77h116.622v17.77h-116.622z"></path><path fill="rgb(0, 0, 0)" stroke="rgb(0, 0,0)" stroke-linejoin="miter" stroke-linecap="butt" stroke-miterlimit="4" stroke-width="11.377777777777778" d="M245.689 783.081v-17.77h84.621v17.77h-84.621z"></path><path fill="rgb(0, 0, 0)" stroke="rgb(0, 0,0)" stroke-linejoin="miter" stroke-linecap="butt" stroke-miterlimit="4" stroke-width="11.377777777777778" d="M930.722 255.232h0.016c11.105-0.005 21.923 2.995 31.083 8.567 9.157 5.571 16.208 13.437 20.346 22.539 4.135 9.092 5.204 19.062 3.103 28.673-2.103 9.618-7.307 18.531-15.049 25.577l-0.002 0.001-143.906 131.078v433.691c0 9.905-4.316 19.528-12.2 26.709-7.903 7.199-18.727 11.323-30.111 11.323h-703.999c-11.384 0-22.207-4.124-30.11-11.323-7.885-7.182-12.201-16.804-12.201-26.709v-786.98c0-9.906 4.316-19.527 12.201-26.71 7.903-7.198 18.726-11.322 30.11-11.322h703.999c11.385 0 22.208 4.124 30.111 11.322 7.885 7.182 12.2 16.803 12.2 26.71v210.875l64.958-59.168c5.12-4.694 11.241-8.442 18.020-11.001 6.78-2.56 14.066-3.873 21.432-3.854zM800 167.789h5.689v-49.41c0-5.554-2.427-10.761-6.544-14.511-4.099-3.734-9.555-5.752-15.145-5.752h-703.999c-5.59 0-11.045 2.018-15.145 5.752-4.117 3.75-6.544 8.956-6.544 14.511v49.41h741.689zM64 185.559h-5.689v719.8c0 5.555 2.427 10.76 6.544 14.511 4.1 3.733 9.555 5.751 15.145 5.751h703.999c5.59 0 11.046-2.018 15.145-5.751 4.118-3.751 6.544-8.957 6.544-14.511v-414.907l-107.378 97.806v282.264h-532.622v-629.865h366.733l165.889 151.101v54.084l107.378-97.806v-162.479h-741.689zM517.689 404.165v-145.737h-331.378v594.325h491.378v-245.711l-175.93 160.247-117.792 35.764 38.912-106.329 254.81-232.096v-60.463h-160zM467.83 688.582l-3.831-3.49-22.878 20.838-0.479 1.311-24.609 67.245 74.208-22.531 23.583-21.48-45.994-41.893zM547.831 280.518l-9.52-8.671v114.548h125.759l-116.239-105.877zM524.17 714.073l3.83 3.49 385.825-351.43-49.824-45.383-385.824 351.43 45.994 41.893zM924.169 349.731l3.831 3.488 27.164-24.744c0.016-0.014 0.031-0.027 0.047-0.041 3.358-2.94 6.072-6.488 7.959-10.454 1.897-3.987 2.909-8.302 2.962-12.686 0.051-4.385-0.86-8.721-2.662-12.747-1.803-4.025-4.453-7.644-7.765-10.661-3.311-3.016-7.22-5.374-11.488-6.96-4.268-1.585-8.823-2.373-13.405-2.329-4.582 0.046-9.119 0.923-13.351 2.592-4.212 1.662-8.053 4.083-11.287 7.146-0.015 0.015-0.030 0.028-0.046 0.043l-27.952 25.458 45.994 41.894z"></path></g>
</svg>
