<?xml version="1.0" encoding="utf-8"?>
<!-- Generator: Adobe Illustrator 17.0.0, SVG Export Plug-In . SVG Version: 6.00 Build 0)  -->
<!DOCTYPE svg PUBLIC "-//W3C//DTD SVG 1.1//EN" "http://www.w3.org/Graphics/SVG/1.1/DTD/svg11.dtd">
<svg version="1.1" id="Layer_1" xmlns="http://www.w3.org/2000/svg" xmlns:xlink="http://www.w3.org/1999/xlink" x="0px" y="0px"
	 width="1025px" height="1024px" viewBox="0 0 1025 1024" enable-background="new 0 0 1025 1024" xml:space="preserve">
<g>
	<path d="M477.867 537.214c124.457 0 225.259-110.057 225.259-244.8 0-132.686-100.802-238.114-225.259-238.114-123.943 0-225.772 106.971-225.257 239.143 0.515 134.229 100.801 243.771 225.257 243.771zM477.867 447.214c-70.971 0-131.143-67.372-131.143-153.771-0.514-84.343 59.657-149.143 131.143-149.143 72 0 131.143 63.771 131.143 148.114 0 86.4-59.658 154.8-131.143 154.8zM156.953 1015.501h641.316c88.972 0 131.652-28.29 131.652-88.972 0-141.428-176.394-329.658-452.054-329.658-275.657 0-452.572 188.23-452.572 329.658 0 60.682 42.686 88.972 131.657 88.972zM141.010 925.498c-12.343 0-16.972-4.11-16.972-13.367 0-78.691 127.029-225.26 353.829-225.26 226.283 0 353.313 146.569 353.313 225.26 0 9.257-4.628 13.367-16.971 13.367h-673.199z"></path>
</g>
</svg>
